<svg width="770" height="334" viewBox="0 0 770 334" fill="none" xmlns="http://www.w3.org/2000/svg">
<g filter="url(#filter0_b)">
<rect x="152" width="610" height="334" rx="16" fill="#35068C"/>
</g>
<path d="M374.004 54H375.849V50.5597H377.798C380.149 50.5597 381.412 49.1477 381.412 47.1889C381.412 45.245 380.164 43.8182 377.822 43.8182H374.004V54ZM375.849 49.0433V45.3594H377.539C378.921 45.3594 379.533 46.1051 379.533 47.1889C379.533 48.2727 378.921 49.0433 377.549 49.0433H375.849ZM382.934 54H384.734V49.5107C384.734 48.5412 385.465 47.8551 386.454 47.8551C386.758 47.8551 387.135 47.9098 387.29 47.9595V46.304C387.126 46.2741 386.842 46.2543 386.643 46.2543C385.768 46.2543 385.037 46.7514 384.759 47.6364H384.68V46.3636H382.934V54ZM388.485 54H390.285V46.3636H388.485V54ZM389.39 45.2798C389.962 45.2798 390.429 44.8423 390.429 44.3054C390.429 43.7635 389.962 43.326 389.39 43.326C388.813 43.326 388.346 43.7635 388.346 44.3054C388.346 44.8423 388.813 45.2798 389.39 45.2798ZM395.467 54.1491C397.386 54.1491 398.609 53.0107 398.738 51.3899H397.018C396.864 52.2102 396.272 52.6825 395.482 52.6825C394.358 52.6825 393.632 51.7429 393.632 50.1818C393.632 48.6406 394.373 47.7159 395.482 47.7159C396.347 47.7159 396.879 48.2727 397.018 49.0085H398.738C398.614 47.353 397.321 46.2642 395.457 46.2642C393.219 46.2642 391.808 47.88 391.808 50.2116C391.808 52.5234 393.185 54.1491 395.467 54.1491ZM403.596 54.1491C405.376 54.1491 406.599 53.2791 406.917 51.9517L405.237 51.7628C404.993 52.4091 404.397 52.7472 403.621 52.7472C402.458 52.7472 401.687 51.9815 401.672 50.674H406.992V50.1222C406.992 47.4425 405.381 46.2642 403.502 46.2642C401.314 46.2642 399.888 47.87 399.888 50.2266C399.888 52.6229 401.295 54.1491 403.596 54.1491ZM401.677 49.4609C401.732 48.4865 402.453 47.6662 403.527 47.6662C404.561 47.6662 405.257 48.4219 405.267 49.4609H401.677Z" fill="white"/>
<path d="M503.72 47.2536C503.406 44.9915 501.666 43.679 499.409 43.679C496.749 43.679 494.746 45.6179 494.746 48.9091C494.746 52.1953 496.725 54.1392 499.409 54.1392C501.83 54.1392 503.436 52.5732 503.72 50.6293L501.86 50.6193C501.627 51.8125 500.652 52.4837 499.434 52.4837C497.783 52.4837 496.6 51.2457 496.6 48.9091C496.6 46.6122 497.774 45.3345 499.439 45.3345C500.677 45.3345 501.646 46.0355 501.86 47.2536H503.72ZM507.129 49.5256C507.129 48.4219 507.815 47.7855 508.779 47.7855C509.724 47.7855 510.281 48.3871 510.281 49.4162V54H512.081V49.1378C512.081 47.2933 511.036 46.2642 509.451 46.2642C508.277 46.2642 507.532 46.7962 507.179 47.6612H507.089V43.8182H505.329V54H507.129V49.5256ZM516.112 54.1541C517.311 54.1541 518.027 53.5923 518.355 52.951H518.414V54H520.144V48.8892C520.144 46.8707 518.499 46.2642 517.042 46.2642C515.436 46.2642 514.203 46.9801 513.806 48.3722L515.486 48.6108C515.665 48.0888 516.172 47.6413 517.052 47.6413C517.887 47.6413 518.345 48.0689 518.345 48.8196V48.8494C518.345 49.3665 517.803 49.3913 516.456 49.5355C514.974 49.6946 513.557 50.1371 513.557 51.8572C513.557 53.3587 514.656 54.1541 516.112 54.1541ZM516.58 52.8317C515.829 52.8317 515.292 52.4886 515.292 51.8274C515.292 51.1364 515.894 50.848 516.699 50.7337C517.171 50.669 518.116 50.5497 518.35 50.3608V51.2607C518.35 52.1108 517.664 52.8317 516.58 52.8317ZM523.754 49.5256C523.754 48.4219 524.42 47.7855 525.37 47.7855C526.299 47.7855 526.856 48.397 526.856 49.4162V54H528.656V49.1378C528.661 47.3082 527.617 46.2642 526.041 46.2642C524.897 46.2642 524.112 46.8111 523.764 47.6612H523.674V46.3636H521.954V54H523.754V49.5256ZM533.806 57.0227C535.87 57.0227 537.391 56.0781 537.391 54.1243V46.3636H535.616V47.6264H535.517C535.243 47.0746 534.671 46.2642 533.324 46.2642C531.559 46.2642 530.172 47.6463 530.172 50.157C530.172 52.6477 531.559 53.8906 533.319 53.8906C534.627 53.8906 535.238 53.1896 535.517 52.6278H535.606V54.0746C535.606 55.1982 534.86 55.6605 533.836 55.6605C532.752 55.6605 532.275 55.1484 532.056 54.701L530.436 55.0938C530.764 56.1626 531.862 57.0227 533.806 57.0227ZM533.821 52.4787C532.633 52.4787 532.007 51.554 532.007 50.147C532.007 48.7599 532.623 47.7408 533.821 47.7408C534.98 47.7408 535.616 48.7003 535.616 50.147C535.616 51.6037 534.97 52.4787 533.821 52.4787ZM542.616 54.1491C544.396 54.1491 545.619 53.2791 545.937 51.9517L544.257 51.7628C544.013 52.4091 543.416 52.7472 542.641 52.7472C541.478 52.7472 540.707 51.9815 540.692 50.674H546.012V50.1222C546.012 47.4425 544.401 46.2642 542.522 46.2642C540.334 46.2642 538.907 47.87 538.907 50.2266C538.907 52.6229 540.314 54.1491 542.616 54.1491ZM540.697 49.4609C540.752 48.4865 541.473 47.6662 542.546 47.6662C543.581 47.6662 544.277 48.4219 544.286 49.4609H540.697Z" fill="white"/>
<path d="M637.367 43.8182H635.343L638.928 54H641.205L644.794 43.8182H642.766L640.121 51.8324H640.017L637.367 43.8182ZM648.566 54.1491C650.804 54.1491 652.226 52.5732 652.226 50.2116C652.226 47.8452 650.804 46.2642 648.566 46.2642C646.329 46.2642 644.907 47.8452 644.907 50.2116C644.907 52.5732 646.329 54.1491 648.566 54.1491ZM648.576 52.7074C647.338 52.7074 646.732 51.6037 646.732 50.2067C646.732 48.8097 647.338 47.6911 648.576 47.6911C649.794 47.6911 650.401 48.8097 650.401 50.2067C650.401 51.6037 649.794 52.7074 648.576 52.7074ZM655.553 43.8182H653.753V54H655.553V43.8182ZM662.271 50.7884C662.271 51.9517 661.44 52.5284 660.645 52.5284C659.78 52.5284 659.203 51.9169 659.203 50.9474V46.3636H657.403V51.2259C657.403 53.0604 658.447 54.0994 659.949 54.0994C661.092 54.0994 661.898 53.4979 662.246 52.6428H662.325V54H664.07V46.3636H662.271V50.7884ZM665.921 54H667.721V49.3565C667.721 48.4169 668.347 47.7805 669.123 47.7805C669.883 47.7805 670.405 48.2926 670.405 49.0781V54H672.17V49.2372C672.17 48.3771 672.682 47.7805 673.552 47.7805C674.278 47.7805 674.855 48.2081 674.855 49.1527V54H676.66V48.8743C676.66 47.169 675.675 46.2642 674.273 46.2642C673.165 46.2642 672.319 46.8111 671.981 47.6612H671.902C671.608 46.7962 670.868 46.2642 669.839 46.2642C668.814 46.2642 668.049 46.7912 667.731 47.6612H667.641V46.3636H665.921V54ZM681.866 54.1491C683.646 54.1491 684.869 53.2791 685.187 51.9517L683.507 51.7628C683.263 52.4091 682.667 52.7472 681.891 52.7472C680.728 52.7472 679.957 51.9815 679.942 50.674H685.262V50.1222C685.262 47.4425 683.651 46.2642 681.772 46.2642C679.584 46.2642 678.157 47.87 678.157 50.2266C678.157 52.6229 679.564 54.1491 681.866 54.1491ZM679.947 49.4609C680.002 48.4865 680.723 47.6662 681.797 47.6662C682.831 47.6662 683.527 48.4219 683.537 49.4609H679.947ZM690.704 49.8487C690.704 52.3295 691.366 54.3928 692.673 56.1626H694.368C693.359 54.8501 692.579 52.2053 692.579 49.8487C692.579 47.4872 693.359 44.8423 694.368 43.5298H692.673C691.366 45.2997 690.704 47.3679 690.704 49.8487ZM695.747 54H702.727V52.4588H698.292V52.3892L700.047 50.6044C702.026 48.7053 702.573 47.7805 702.573 46.6321C702.573 44.9268 701.186 43.679 699.137 43.679C697.119 43.679 695.687 44.9318 695.687 46.8658H697.442C697.442 45.8267 698.098 45.1754 699.113 45.1754C700.082 45.1754 700.803 45.767 700.803 46.7266C700.803 47.5767 700.286 48.1832 699.282 49.2024L695.747 52.6676V54ZM704.039 52.1108H708.897V54H710.657V52.1108H711.959V50.5945H710.657V43.8182H708.36L704.039 50.6442V52.1108ZM708.917 50.5945H705.929V50.5149L708.837 45.9062H708.917V50.5945ZM715.367 49.5256C715.367 48.4219 716.053 47.7855 717.018 47.7855C717.962 47.7855 718.519 48.3871 718.519 49.4162V54H720.319V49.1378C720.319 47.2933 719.275 46.2642 717.689 46.2642C716.516 46.2642 715.77 46.7962 715.417 47.6612H715.327V43.8182H713.567V54H715.367V49.5256ZM725.365 49.8487C725.365 47.3679 724.704 45.3047 723.396 43.5348H721.701C722.71 44.8473 723.491 47.4922 723.491 49.8487C723.491 52.2102 722.71 54.8551 721.701 56.1676H723.396C724.704 54.3977 725.365 52.3295 725.365 49.8487Z" fill="white"/>
<path d="M249.409 116H253.614C256.364 116 257.5 114.659 257.5 112.909C257.5 111.068 256.227 110.068 255.159 110V109.886C256.159 109.614 257.045 108.955 257.045 107.455C257.045 105.75 255.909 104.364 253.477 104.364H249.409V116ZM250.818 114.75V110.705H253.682C255.205 110.705 256.159 111.727 256.159 112.909C256.159 113.932 255.455 114.75 253.614 114.75H250.818ZM250.818 109.477V105.614H253.477C255.023 105.614 255.705 106.432 255.705 107.455C255.705 108.682 254.705 109.477 253.432 109.477H250.818ZM259.794 116H261.134V107.273H259.794V116ZM260.475 105.818C260.998 105.818 261.43 105.409 261.43 104.909C261.43 104.409 260.998 104 260.475 104C259.953 104 259.521 104.409 259.521 104.909C259.521 105.409 259.953 105.818 260.475 105.818ZM267.546 107.273H265.682V105.182H264.341V107.273H263.023V108.409H264.341V113.864C264.341 115.386 265.569 116.114 266.705 116.114C267.205 116.114 267.523 116.023 267.705 115.955L267.432 114.75C267.319 114.773 267.137 114.818 266.841 114.818C266.25 114.818 265.682 114.636 265.682 113.5V108.409H267.546V107.273ZM273.175 116.182C275.106 116.182 276.379 115 276.606 113.455H275.266C275.016 114.409 274.22 114.977 273.175 114.977C271.584 114.977 270.561 113.659 270.561 111.636C270.561 109.659 271.606 108.364 273.175 108.364C274.356 108.364 275.061 109.091 275.266 109.886H276.606C276.379 108.25 274.993 107.159 273.152 107.159C270.788 107.159 269.22 109.023 269.22 111.682C269.22 114.296 270.72 116.182 273.175 116.182ZM282.272 116.182C284.636 116.182 286.227 114.386 286.227 111.682C286.227 108.955 284.636 107.159 282.272 107.159C279.908 107.159 278.318 108.955 278.318 111.682C278.318 114.386 279.908 116.182 282.272 116.182ZM282.272 114.977C280.477 114.977 279.658 113.432 279.658 111.682C279.658 109.932 280.477 108.364 282.272 108.364C284.068 108.364 284.886 109.932 284.886 111.682C284.886 113.432 284.068 114.977 282.272 114.977ZM288.434 116H289.774V107.273H288.434V116ZM289.115 105.818C289.638 105.818 290.07 105.409 290.07 104.909C290.07 104.409 289.638 104 289.115 104C288.593 104 288.161 104.409 288.161 104.909C288.161 105.409 288.593 105.818 289.115 105.818ZM293.731 110.75C293.731 109.227 294.674 108.364 295.959 108.364C297.203 108.364 297.959 109.176 297.959 110.546V116H299.299V110.455C299.299 108.227 298.112 107.159 296.345 107.159C295.027 107.159 294.209 107.75 293.799 108.636H293.686V107.273H292.39V116H293.731V110.75Z" fill="#F2F2F2"/>
<path d="M249.264 92.0001H255.479C258.746 92.0001 260.486 90.2956 260.486 87.9802C260.486 85.8282 258.945 84.5285 257.29 84.4504V84.3084C258.803 83.9675 259.918 82.895 259.918 81.1834C259.918 79.003 258.298 77.4547 255.088 77.4547H249.264V92.0001ZM252.339 89.4859V85.6223H254.918C256.395 85.6223 257.311 86.4746 257.311 87.6748C257.311 88.7686 256.565 89.4859 254.847 89.4859H252.339ZM252.339 83.5413V79.9405H254.676C256.04 79.9405 256.814 80.6436 256.814 81.6947C256.814 82.8453 255.876 83.5413 254.619 83.5413H252.339ZM261.933 79.9902H266.386V92.0001H269.426V79.9902H273.879V77.4547H261.933V79.9902ZM288.036 82.547C287.631 79.1876 285.088 77.2558 281.722 77.2558C277.879 77.2558 274.946 79.9689 274.946 84.7274C274.946 89.4717 277.83 92.199 281.722 92.199C285.45 92.199 287.702 89.7203 288.036 87.0427L284.925 87.0285C284.634 88.5839 283.412 89.4788 281.771 89.4788C279.562 89.4788 278.064 87.8382 278.064 84.7274C278.064 81.7018 279.541 79.976 281.793 79.976C283.476 79.976 284.69 80.949 284.925 82.547H288.036Z" fill="white"/>
<circle cx="212" cy="96.0001" r="20" fill="#C4C4C4"/>
<g clip-path="url(#clip0)">
<path d="M231.402 100.837C228.73 111.557 217.869 118.073 207.164 115.401C196.444 112.729 189.927 101.868 192.599 91.1637C195.272 80.4437 206.117 73.9271 216.837 76.5994C227.542 79.256 234.074 90.1166 231.402 100.837Z" fill="url(#paint0_linear)"/>
<path d="M221.522 93.5081C221.913 90.8518 219.897 89.4143 217.116 88.4612L218.022 84.8518L215.835 84.3049L214.96 87.8206C214.382 87.6799 213.788 87.5393 213.194 87.4143L214.069 83.8831L211.882 83.3362L210.991 86.9299C210.507 86.8206 210.038 86.7112 209.585 86.6018V86.5862L206.554 85.8362L205.975 88.1799C205.975 88.1799 207.6 88.5549 207.569 88.5706C208.46 88.7893 208.616 89.3831 208.585 89.8518L207.554 93.9612C207.616 93.9768 207.694 93.9924 207.788 94.0393C207.71 94.0237 207.632 94.0081 207.554 93.9768L206.116 99.7268C206.007 99.9924 205.725 100.399 205.116 100.242C205.132 100.274 203.522 99.8518 203.522 99.8518L202.429 102.367L205.288 103.086C205.819 103.227 206.335 103.352 206.85 103.492L205.944 107.133L208.132 107.68L209.038 104.071C209.632 104.227 210.225 104.383 210.788 104.524L209.897 108.117L212.085 108.664L212.991 105.024C216.741 105.727 219.554 105.446 220.725 102.055C221.679 99.3362 220.679 97.7581 218.71 96.7268C220.163 96.3987 221.241 95.4456 221.522 93.5081ZM216.507 100.539C215.835 103.258 211.241 101.789 209.757 101.414L210.96 96.5862C212.444 96.9612 217.225 97.6956 216.507 100.539ZM217.194 93.4612C216.569 95.9456 212.757 94.6799 211.522 94.3674L212.616 89.9924C213.85 90.3049 217.835 90.8831 217.194 93.4612Z" fill="white"/>
</g>
<path d="M377.636 103.455H378.568V102.188C380.955 102.023 382.295 100.614 382.295 98.8412C382.295 96.6593 380.227 95.9548 379.023 95.6366L378.568 95.5116V91.4718C379.773 91.5912 380.648 92.2389 380.773 93.273H382.136C382.08 91.6139 380.625 90.3525 378.568 90.2162V88.9093H377.636V90.2332C375.688 90.4321 374.227 91.6707 374.227 93.4548C374.227 95.023 375.364 95.9548 377.182 96.4775L377.636 96.6082V100.909C376.443 100.784 375.466 100.171 375.364 99.0002H373.909C374.04 100.79 375.403 102.04 377.636 102.188V103.455ZM378.568 100.909V96.8752L378.614 96.8866C379.841 97.2275 380.932 97.6593 380.932 98.8184C380.932 99.9605 379.943 100.756 378.568 100.909ZM377.636 95.2616C376.773 95.0173 375.591 94.54 375.591 93.3866C375.591 92.4037 376.386 91.6537 377.636 91.4889V95.2616ZM388.271 102.159C390.624 102.188 392.158 100.415 392.158 98.2502C392.158 96.0002 390.493 94.3866 388.499 94.3866C387.3 94.3866 386.271 94.9718 385.635 95.9321H385.544C385.55 93.0968 386.652 91.4548 388.453 91.4548C389.68 91.4548 390.419 92.2275 390.68 93.273H392.067C391.783 91.4662 390.408 90.2048 388.453 90.2048C385.834 90.2048 384.226 92.523 384.226 96.6366C384.226 100.938 386.362 102.137 388.271 102.159ZM388.271 100.909C386.811 100.909 385.743 99.665 385.749 98.273C385.754 96.8809 386.874 95.6366 388.317 95.6366C389.743 95.6366 390.794 96.8071 390.794 98.2502C390.794 99.7275 389.697 100.909 388.271 100.909ZM394.756 102H396.233L401.415 91.6821V90.3639H393.96V91.6139H399.96V91.7048L394.756 102ZM407.013 102.159C409.229 102.159 410.854 100.523 410.854 98.2957C410.854 96.04 409.286 94.3866 407.149 94.3866C406.365 94.3866 405.604 94.665 405.126 95.0457H405.058L405.467 91.6139H410.331V90.3639H404.286L403.581 96.0912L404.899 96.2502C405.382 95.9037 406.206 95.6537 406.922 95.6593C408.405 95.6707 409.49 96.7957 409.49 98.3184C409.49 99.8127 408.445 100.909 407.013 100.909C405.82 100.909 404.871 100.142 404.763 99.0912H403.399C403.484 100.864 405.013 102.159 407.013 102.159ZM416.906 102.159C419.474 102.159 420.952 99.9832 420.952 96.1821C420.952 92.4093 419.452 90.2048 416.906 90.2048C414.361 90.2048 412.861 92.4093 412.861 96.1821C412.861 99.9832 414.338 102.159 416.906 102.159ZM416.906 100.909C415.213 100.909 414.224 99.2105 414.224 96.1821C414.224 93.1593 415.224 91.4321 416.906 91.4321C418.588 91.4321 419.588 93.1593 419.588 96.1821C419.588 99.2105 418.599 100.909 416.906 100.909Z" fill="#F2F2F2"/>
<circle opacity="0.1" cx="502" cy="97.0002" r="8" fill="#8FFFBE"/>
<path d="M505.388 98.7289L502.181 95.0101C502.089 94.9037 501.912 94.9037 501.819 95.0101L498.612 98.7289C498.493 98.8676 498.601 99.0707 498.793 99.0707H505.207C505.399 99.0707 505.507 98.8676 505.388 98.7289Z" fill="#8FFFBE"/>
<path d="M522.636 99.9548H523.909V96.8412H527.023V95.5684H523.909V92.4548H522.636V95.5684H519.523V96.8412H522.636V99.9548ZM529.756 102H531.233L536.415 91.6821V90.3639H528.96V91.6139H534.96V91.7048L529.756 102ZM537.533 102.091C538.095 102.091 538.555 101.631 538.555 101.068C538.555 100.506 538.095 100.046 537.533 100.046C536.97 100.046 536.51 100.506 536.51 101.068C536.51 101.631 536.97 102.091 537.533 102.091ZM544.433 102.159C546.689 102.159 548.365 100.745 548.365 98.8412C548.365 97.3639 547.49 96.29 546.024 96.0457V95.9548C547.2 95.5968 547.933 94.6309 547.933 93.3184C547.933 91.6707 546.632 90.2048 544.479 90.2048C542.467 90.2048 540.797 91.4434 540.729 93.273H542.092C542.144 92.1139 543.246 91.4321 544.456 91.4321C545.74 91.4321 546.57 92.2105 546.57 93.3866C546.57 94.6139 545.609 95.4093 544.229 95.4093H543.297V96.6593H544.229C545.996 96.6593 546.979 97.5571 546.979 98.8412C546.979 100.074 545.905 100.909 544.411 100.909C543.064 100.909 541.996 100.216 541.911 99.0912H540.479C540.564 100.921 542.178 102.159 544.433 102.159ZM556.621 99.8184C556.621 101.091 557.416 102.159 558.894 102.159C560.348 102.159 561.144 101.091 561.144 99.8184V99.2048C561.144 97.9321 560.371 96.8639 558.894 96.8639C557.439 96.8639 556.621 97.9321 556.621 99.2048V99.8184ZM550.825 93.1593C550.825 94.4321 551.621 95.5002 553.098 95.5002C554.553 95.5002 555.348 94.4321 555.348 93.1593V92.5457C555.348 91.273 554.575 90.2048 553.098 90.2048C551.644 90.2048 550.825 91.273 550.825 92.5457V93.1593ZM551.257 102H552.553L560.553 90.3639H559.257L551.257 102ZM557.78 99.2048C557.78 98.5002 558.098 97.8412 558.894 97.8412C559.712 97.8412 559.984 98.5002 559.984 99.2048V99.8184C559.984 100.523 559.689 101.182 558.894 101.182C558.075 101.182 557.78 100.523 557.78 99.8184V99.2048ZM551.984 92.5457C551.984 91.8412 552.303 91.1821 553.098 91.1821C553.916 91.1821 554.189 91.8412 554.189 92.5457V93.1593C554.189 93.8639 553.894 94.523 553.098 94.523C552.28 94.523 551.984 93.8639 551.984 93.1593V92.5457Z" fill="#8FFFBE"/>
<path d="M639.637 103.455H640.568V102.188C642.955 102.023 644.296 100.614 644.296 98.8412C644.296 96.6593 642.227 95.9548 641.023 95.6366L640.568 95.5116V91.4718C641.773 91.5912 642.648 92.2389 642.773 93.273H644.137C644.08 91.6139 642.625 90.3525 640.568 90.2162V88.9093H639.637V90.2332C637.688 90.4321 636.227 91.6707 636.227 93.4548C636.227 95.023 637.364 95.9548 639.182 96.4775L639.637 96.6082V100.909C638.443 100.784 637.466 100.171 637.364 99.0002H635.909C636.04 100.79 637.404 102.04 639.637 102.188V103.455ZM640.568 100.909V96.8752L640.614 96.8866C641.841 97.2275 642.932 97.6593 642.932 98.8184C642.932 99.9605 641.943 100.756 640.568 100.909ZM639.637 95.2616C638.773 95.0173 637.591 94.54 637.591 93.3866C637.591 92.4037 638.387 91.6537 639.637 91.4889V95.2616ZM650.34 102.159C652.595 102.159 654.271 100.745 654.271 98.8412C654.271 97.3639 653.396 96.29 651.931 96.0457V95.9548C653.107 95.5968 653.84 94.6309 653.84 93.3184C653.84 91.6707 652.539 90.2048 650.385 90.2048C648.374 90.2048 646.703 91.4434 646.635 93.273H647.999C648.05 92.1139 649.152 91.4321 650.362 91.4321C651.646 91.4321 652.476 92.2105 652.476 93.3866C652.476 94.6139 651.516 95.4093 650.135 95.4093H649.203V96.6593H650.135C651.902 96.6593 652.885 97.5571 652.885 98.8412C652.885 100.074 651.811 100.909 650.317 100.909C648.97 100.909 647.902 100.216 647.817 99.0912H646.385C646.47 100.921 648.084 102.159 650.34 102.159ZM656.323 99.6139H661.8V102H663.141V99.6139H664.732V98.3639H663.141V90.3639H661.436L656.323 98.4548V99.6139ZM661.8 98.3639H657.845V98.273L661.709 92.1593H661.8V98.3639ZM666.861 102H674.202V100.75H668.793V100.659L671.406 97.8639C673.406 95.7218 673.997 94.7218 673.997 93.4321C673.997 91.6366 672.543 90.2048 670.497 90.2048C668.458 90.2048 666.906 91.5912 666.906 93.6366H668.247C668.247 92.3127 669.105 91.4321 670.452 91.4321C671.713 91.4321 672.679 92.2048 672.679 93.4321C672.679 94.5059 672.048 95.3014 670.702 96.773L666.861 100.978V102ZM680.344 102.159C682.912 102.159 684.389 99.9832 684.389 96.1821C684.389 92.4093 682.889 90.2048 680.344 90.2048C677.798 90.2048 676.298 92.4093 676.298 96.1821C676.298 99.9832 677.776 102.159 680.344 102.159ZM680.344 100.909C678.651 100.909 677.662 99.2105 677.662 96.1821C677.662 93.1593 678.662 91.4321 680.344 91.4321C682.026 91.4321 683.026 93.1593 683.026 96.1821C683.026 99.2105 682.037 100.909 680.344 100.909ZM686.548 102H693.889V100.75H688.48V100.659L691.094 97.8639C693.094 95.7218 693.685 94.7218 693.685 93.4321C693.685 91.6366 692.23 90.2048 690.185 90.2048C688.145 90.2048 686.594 91.5912 686.594 93.6366H687.935C687.935 92.3127 688.793 91.4321 690.139 91.4321C691.401 91.4321 692.367 92.2048 692.367 93.4321C692.367 94.5059 691.736 95.3014 690.389 96.773L686.548 100.978V102ZM700.327 90.3639H698.918L696.009 92.2957V93.7275L698.85 91.8412H698.918V102H700.327V90.3639ZM703.401 99.6139H708.878V102H710.219V99.6139H711.81V98.3639H710.219V90.3639H708.514L703.401 98.4548V99.6139ZM708.878 98.3639H704.923V98.273L708.787 92.1593H708.878V98.3639Z" fill="#F2F2F2"/>
<g filter="url(#filter1_d)">
<rect x="79.9999" y="144" width="610" height="79" rx="16" fill="#4610AD"/>
<path d="M177.409 203H184.523V201.75H178.818V197.796H184.068V196.546H178.818V192.614H184.432V191.364H177.409V203ZM190.745 194.273H188.882V192.182H187.541V194.273H186.222V195.409H187.541V200.864C187.541 202.386 188.768 203.114 189.904 203.114C190.404 203.114 190.722 203.023 190.904 202.955L190.632 201.75C190.518 201.773 190.336 201.818 190.041 201.818C189.45 201.818 188.882 201.636 188.882 200.5V195.409H190.745V194.273ZM194.451 197.75C194.451 196.227 195.422 195.364 196.746 195.364C198.007 195.364 198.769 196.159 198.769 197.546V203H200.11V197.455C200.11 195.21 198.917 194.159 197.132 194.159C195.757 194.159 194.973 194.733 194.564 195.636H194.451V191.364H193.11V203H194.451V197.75ZM206.382 203.182C208.155 203.182 209.45 202.296 209.859 200.977L208.564 200.614C208.223 201.523 207.433 201.977 206.382 201.977C204.808 201.977 203.723 200.96 203.66 199.091H209.996V198.523C209.996 195.273 208.064 194.159 206.246 194.159C203.882 194.159 202.314 196.023 202.314 198.705C202.314 201.386 203.859 203.182 206.382 203.182ZM203.66 197.932C203.751 196.574 204.711 195.364 206.246 195.364C207.7 195.364 208.632 196.455 208.632 197.932H203.66ZM212.195 203H213.536V197.477C213.536 196.296 214.468 195.432 215.741 195.432C216.099 195.432 216.468 195.5 216.559 195.523V194.159C216.406 194.148 216.053 194.136 215.854 194.136C214.809 194.136 213.9 194.727 213.582 195.591H213.491V194.273H212.195V203ZM221.702 203.182C223.475 203.182 224.77 202.296 225.179 200.977L223.884 200.614C223.543 201.523 222.753 201.977 221.702 201.977C220.128 201.977 219.043 200.96 218.98 199.091H225.316V198.523C225.316 195.273 223.384 194.159 221.566 194.159C219.202 194.159 217.634 196.023 217.634 198.705C217.634 201.386 219.179 203.182 221.702 203.182ZM218.98 197.932C219.071 196.574 220.031 195.364 221.566 195.364C223.02 195.364 223.952 196.455 223.952 197.932H218.98ZM233.015 199.432C233.015 201.068 231.765 201.818 230.765 201.818C229.652 201.818 228.856 201 228.856 199.727V194.273H227.515V199.818C227.515 202.046 228.697 203.114 230.334 203.114C231.652 203.114 232.515 202.409 232.924 201.523H233.015V203H234.356V194.273H233.015V199.432ZM236.972 203H238.313V197.546C238.313 196.267 239.245 195.364 240.29 195.364C241.307 195.364 242.018 196.029 242.018 197.023V203H243.381V197.318C243.381 196.193 244.086 195.364 245.313 195.364C246.268 195.364 247.086 195.869 247.086 197.159V203H248.427V197.159C248.427 195.108 247.324 194.159 245.768 194.159C244.518 194.159 243.603 194.733 243.154 195.636H243.063C242.631 194.705 241.87 194.159 240.722 194.159C239.586 194.159 238.745 194.705 238.381 195.636H238.268V194.273H236.972V203Z" fill="#F2F2F2"/>
<path d="M177.264 179H187.094V176.465H180.339V172.992H186.561V170.456H180.339V166.99H187.065V164.455H177.264V179ZM188.956 166.99H193.409V179H196.449V166.99H200.902V164.455H188.956V166.99ZM202.87 179H205.945V172.992H212.188V179H215.256V164.455H212.188V170.456H205.945V164.455H202.87V179Z" fill="white"/>
<path d="M159.891 184C159.891 194.988 150.984 203.895 139.997 203.895C129.009 203.895 120.102 194.988 120.102 184C120.102 173.013 129.009 164.105 139.997 164.105C150.984 164.105 159.891 173.013 159.891 184Z" fill="#6374C3"/>
<path d="M139.933 174.769L139.81 175.187V187.306L139.933 187.429L145.559 184.104L139.933 174.769Z" fill="white"/>
<path d="M139.933 174.769L134.307 184.104L139.933 187.429V181.547V174.769Z" fill="white"/>
<path d="M139.933 189.259L139.863 189.343V193.661L139.933 193.863L145.562 185.935L139.933 189.259Z" fill="white"/>
<path d="M139.933 193.863V189.259L134.307 185.935L139.933 193.863Z" fill="white"/>
<path d="M139.933 187.43L145.559 184.105L139.933 181.548V187.43Z" fill="white"/>
<path d="M134.307 184.105L139.933 187.43V181.548L134.307 184.105Z" fill="white"/>
<path d="M305.636 190.455H306.568V189.188C308.954 189.023 310.295 187.614 310.295 185.841C310.295 183.659 308.227 182.955 307.023 182.636L306.568 182.511V178.472C307.773 178.591 308.648 179.239 308.773 180.273H310.136C310.079 178.614 308.625 177.352 306.568 177.216V175.909H305.636V177.233C303.687 177.432 302.227 178.671 302.227 180.455C302.227 182.023 303.364 182.955 305.182 183.477L305.636 183.608V187.909C304.443 187.784 303.466 187.171 303.364 186H301.909C302.04 187.79 303.403 189.04 305.636 189.188V190.455ZM306.568 187.909V183.875L306.614 183.886C307.841 184.227 308.932 184.659 308.932 185.818C308.932 186.96 307.943 187.756 306.568 187.909ZM305.636 182.261C304.773 182.017 303.591 181.54 303.591 180.386C303.591 179.404 304.386 178.654 305.636 178.489V182.261ZM316.499 177.364H315.089L312.18 179.296V180.727L315.021 178.841H315.089V189H316.499V177.364ZM323.481 189.159C325.697 189.159 327.322 187.523 327.322 185.296C327.322 183.04 325.754 181.386 323.618 181.386C322.834 181.386 322.072 181.665 321.595 182.046H321.527L321.936 178.614H326.8V177.364H320.754L320.05 183.091L321.368 183.25C321.851 182.904 322.675 182.654 323.391 182.659C324.874 182.671 325.959 183.796 325.959 185.318C325.959 186.813 324.913 187.909 323.481 187.909C322.288 187.909 321.339 187.142 321.231 186.091H319.868C319.953 187.864 321.481 189.159 323.481 189.159ZM333.443 189.159C335.795 189.188 337.329 187.415 337.329 185.25C337.329 183 335.665 181.386 333.67 181.386C332.472 181.386 331.443 181.972 330.807 182.932H330.716C330.722 180.097 331.824 178.455 333.625 178.455C334.852 178.455 335.591 179.227 335.852 180.273H337.239C336.954 178.466 335.579 177.205 333.625 177.205C331.006 177.205 329.398 179.523 329.398 183.636C329.398 187.938 331.534 189.136 333.443 189.159ZM333.443 187.909C331.983 187.909 330.915 186.665 330.92 185.273C330.926 183.881 332.045 182.636 333.489 182.636C334.915 182.636 335.966 183.807 335.966 185.25C335.966 186.727 334.869 187.909 333.443 187.909ZM340.017 189.091C340.579 189.091 341.04 188.631 341.04 188.068C341.04 187.506 340.579 187.046 340.017 187.046C339.454 187.046 338.994 187.506 338.994 188.068C338.994 188.631 339.454 189.091 340.017 189.091ZM346.791 189.159C349.115 189.159 350.734 187.801 350.746 185.909C350.734 184.438 349.751 183.188 348.496 182.955V182.886C349.587 182.602 350.302 181.534 350.314 180.296C350.302 178.523 348.814 177.205 346.791 177.205C344.746 177.205 343.257 178.523 343.268 180.296C343.257 181.534 343.973 182.602 345.087 182.886V182.955C343.808 183.188 342.825 184.438 342.837 185.909C342.825 187.801 344.445 189.159 346.791 189.159ZM346.791 187.909C345.195 187.909 344.212 187.091 344.223 185.841C344.212 184.529 345.297 183.591 346.791 183.591C348.263 183.591 349.348 184.529 349.359 185.841C349.348 187.091 348.365 187.909 346.791 187.909ZM346.791 182.386C345.518 182.386 344.621 181.591 344.632 180.386C344.621 179.205 345.484 178.432 346.791 178.432C348.075 178.432 348.939 179.205 348.95 180.386C348.939 181.591 348.041 182.386 346.791 182.386ZM356.855 189.159C359.111 189.159 360.787 187.744 360.787 185.841C360.787 184.364 359.912 183.29 358.446 183.046V182.955C359.622 182.597 360.355 181.631 360.355 180.318C360.355 178.671 359.054 177.205 356.901 177.205C354.889 177.205 353.219 178.443 353.151 180.273H354.514C354.565 179.114 355.668 178.432 356.878 178.432C358.162 178.432 358.991 179.21 358.991 180.386C358.991 181.614 358.031 182.409 356.651 182.409H355.719V183.659H356.651C358.418 183.659 359.401 184.557 359.401 185.841C359.401 187.074 358.327 187.909 356.832 187.909C355.486 187.909 354.418 187.216 354.332 186.091H352.901C352.986 187.921 354.599 189.159 356.855 189.159Z" fill="#F2F2F2"/>
<circle opacity="0.1" cx="430" cy="184" r="8" fill="#FF7676"/>
<path d="M433.207 181.93H426.793C426.6 181.93 426.493 182.133 426.612 182.272L429.819 185.99C429.911 186.097 430.088 186.097 430.181 185.99L433.388 182.272C433.507 182.133 433.399 181.93 433.207 181.93Z" fill="#FF7676"/>
<path d="M452.227 182.557H447.136V183.807H452.227V182.557ZM458.359 189.159C460.927 189.159 462.405 186.983 462.405 183.182C462.405 179.409 460.905 177.205 458.359 177.205C455.814 177.205 454.314 179.409 454.314 183.182C454.314 186.983 455.791 189.159 458.359 189.159ZM458.359 187.909C456.666 187.909 455.677 186.21 455.677 183.182C455.677 180.159 456.677 178.432 458.359 178.432C460.041 178.432 461.041 180.159 461.041 183.182C461.041 186.21 460.052 187.909 458.359 187.909ZM465.158 189.091C465.72 189.091 466.18 188.631 466.18 188.068C466.18 187.506 465.72 187.046 465.158 187.046C464.595 187.046 464.135 187.506 464.135 188.068C464.135 188.631 464.595 189.091 465.158 189.091ZM472.159 177.205C469.795 177.176 468.273 178.955 468.273 181.091C468.273 183.341 469.932 184.955 471.932 184.955C473.136 184.955 474.159 184.364 474.795 183.409H474.886C474.886 186.273 473.773 187.909 471.977 187.909C470.75 187.909 470 187.136 469.75 186.068H468.364C468.636 187.909 470.023 189.159 471.977 189.159C474.591 189.159 476.204 186.841 476.204 182.705C476.204 178.432 474.068 177.227 472.159 177.205ZM472.159 178.455C473.614 178.455 474.682 179.705 474.682 181.068C474.682 182.455 473.545 183.705 472.114 183.705C470.682 183.705 469.636 182.546 469.636 181.091C469.636 179.636 470.727 178.455 472.159 178.455ZM484.371 186.818C484.371 188.091 485.166 189.159 486.643 189.159C488.098 189.159 488.893 188.091 488.893 186.818V186.205C488.893 184.932 488.121 183.864 486.643 183.864C485.189 183.864 484.371 184.932 484.371 186.205V186.818ZM478.575 180.159C478.575 181.432 479.371 182.5 480.848 182.5C482.302 182.5 483.098 181.432 483.098 180.159V179.546C483.098 178.273 482.325 177.205 480.848 177.205C479.393 177.205 478.575 178.273 478.575 179.546V180.159ZM479.007 189H480.302L488.302 177.364H487.007L479.007 189ZM485.53 186.205C485.53 185.5 485.848 184.841 486.643 184.841C487.462 184.841 487.734 185.5 487.734 186.205V186.818C487.734 187.523 487.439 188.182 486.643 188.182C485.825 188.182 485.53 187.523 485.53 186.818V186.205ZM479.734 179.546C479.734 178.841 480.052 178.182 480.848 178.182C481.666 178.182 481.939 178.841 481.939 179.546V180.159C481.939 180.864 481.643 181.523 480.848 181.523C480.03 181.523 479.734 180.864 479.734 180.159V179.546Z" fill="#FF7676"/>
<path d="M567.636 190.455H568.568V189.188C570.954 189.023 572.295 187.614 572.295 185.841C572.295 183.659 570.227 182.955 569.023 182.636L568.568 182.511V178.472C569.773 178.591 570.648 179.239 570.773 180.273H572.136C572.079 178.614 570.625 177.352 568.568 177.216V175.909H567.636V177.233C565.687 177.432 564.227 178.671 564.227 180.455C564.227 182.023 565.364 182.955 567.182 183.477L567.636 183.608V187.909C566.443 187.784 565.466 187.171 565.364 186H563.909C564.04 187.79 565.403 189.04 567.636 189.188V190.455ZM568.568 187.909V183.875L568.614 183.886C569.841 184.227 570.932 184.659 570.932 185.818C570.932 186.96 569.943 187.756 568.568 187.909ZM567.636 182.261C566.773 182.017 565.591 181.54 565.591 180.386C565.591 179.404 566.386 178.654 567.636 178.489V182.261ZM578.499 177.364H577.089L574.18 179.296V180.727L577.021 178.841H577.089V189H578.499V177.364ZM585.572 189.159C587.896 189.159 589.516 187.801 589.527 185.909C589.516 184.438 588.533 183.188 587.277 182.955V182.886C588.368 182.602 589.084 181.534 589.095 180.296C589.084 178.523 587.595 177.205 585.572 177.205C583.527 177.205 582.038 178.523 582.05 180.296C582.038 181.534 582.754 182.602 583.868 182.886V182.955C582.589 183.188 581.606 184.438 581.618 185.909C581.606 187.801 583.226 189.159 585.572 189.159ZM585.572 187.909C583.976 187.909 582.993 187.091 583.004 185.841C582.993 184.529 584.078 183.591 585.572 183.591C587.044 183.591 588.129 184.529 588.141 185.841C588.129 187.091 587.146 187.909 585.572 187.909ZM585.572 182.386C584.3 182.386 583.402 181.591 583.413 180.386C583.402 179.205 584.266 178.432 585.572 178.432C586.856 178.432 587.72 179.205 587.731 180.386C587.72 181.591 586.822 182.386 585.572 182.386ZM595.795 177.364H594.386L591.477 179.296V180.727L594.318 178.841H594.386V189H595.795V177.364ZM599.142 189H606.483V187.75H601.074V187.659L603.687 184.864C605.687 182.722 606.278 181.722 606.278 180.432C606.278 178.636 604.824 177.205 602.778 177.205C600.739 177.205 599.187 178.591 599.187 180.636H600.528C600.528 179.313 601.386 178.432 602.733 178.432C603.994 178.432 604.96 179.205 604.96 180.432C604.96 181.506 604.329 182.301 602.983 183.773L599.142 187.977V189ZM612.761 189.159C615.017 189.159 616.693 187.744 616.693 185.841C616.693 184.364 615.818 183.29 614.352 183.046V182.955C615.528 182.597 616.261 181.631 616.261 180.318C616.261 178.671 614.96 177.205 612.807 177.205C610.795 177.205 609.125 178.443 609.057 180.273H610.42C610.472 179.114 611.574 178.432 612.784 178.432C614.068 178.432 614.898 179.21 614.898 180.386C614.898 181.614 613.937 182.409 612.557 182.409H611.625V183.659H612.557C614.324 183.659 615.307 184.557 615.307 185.841C615.307 187.074 614.233 187.909 612.739 187.909C611.392 187.909 610.324 187.216 610.239 186.091H608.807C608.892 187.921 610.506 189.159 612.761 189.159ZM622.653 189.159C624.869 189.159 626.494 187.523 626.494 185.296C626.494 183.04 624.926 181.386 622.79 181.386C622.006 181.386 621.244 181.665 620.767 182.046H620.699L621.108 178.614H625.972V177.364H619.926L619.222 183.091L620.54 183.25C621.023 182.904 621.847 182.654 622.562 182.659C624.045 182.671 625.131 183.796 625.131 185.318C625.131 186.813 624.085 187.909 622.653 187.909C621.46 187.909 620.511 187.142 620.403 186.091H619.04C619.125 187.864 620.653 189.159 622.653 189.159ZM632.547 189.159C635.115 189.159 636.592 186.983 636.592 183.182C636.592 179.409 635.092 177.205 632.547 177.205C630.001 177.205 628.501 179.409 628.501 183.182C628.501 186.983 629.979 189.159 632.547 189.159ZM632.547 187.909C630.854 187.909 629.865 186.21 629.865 183.182C629.865 180.159 630.865 178.432 632.547 178.432C634.229 178.432 635.229 180.159 635.229 183.182C635.229 186.21 634.24 187.909 632.547 187.909Z" fill="#F2F2F2"/>
</g>
<path d="M377.636 277.455H378.568V276.188C380.955 276.023 382.295 274.614 382.295 272.841C382.295 270.66 380.227 269.955 379.023 269.637L378.568 269.512V265.472C379.773 265.591 380.648 266.239 380.773 267.273H382.136C382.08 265.614 380.625 264.353 378.568 264.216V262.91H377.636V264.233C375.688 264.432 374.227 265.671 374.227 267.455C374.227 269.023 375.364 269.955 377.182 270.478L377.636 270.608V274.91C376.443 274.785 375.466 274.171 375.364 273H373.909C374.04 274.79 375.403 276.04 377.636 276.188V277.455ZM378.568 274.91V270.875L378.614 270.887C379.841 271.228 380.932 271.66 380.932 272.819C380.932 273.961 379.943 274.756 378.568 274.91ZM377.636 269.262C376.773 269.018 375.591 268.54 375.591 267.387C375.591 266.404 376.386 265.654 377.636 265.489V269.262ZM388.135 276.16C390.459 276.16 392.078 274.802 392.089 272.91C392.078 271.438 391.095 270.188 389.839 269.955V269.887C390.93 269.603 391.646 268.535 391.658 267.296C391.646 265.523 390.158 264.205 388.135 264.205C386.089 264.205 384.601 265.523 384.612 267.296C384.601 268.535 385.317 269.603 386.43 269.887V269.955C385.152 270.188 384.169 271.438 384.18 272.91C384.169 274.802 385.788 276.16 388.135 276.16ZM388.135 274.91C386.538 274.91 385.555 274.091 385.567 272.841C385.555 271.529 386.641 270.591 388.135 270.591C389.607 270.591 390.692 271.529 390.703 272.841C390.692 274.091 389.709 274.91 388.135 274.91ZM388.135 269.387C386.862 269.387 385.964 268.591 385.976 267.387C385.964 266.205 386.828 265.432 388.135 265.432C389.419 265.432 390.283 266.205 390.294 267.387C390.283 268.591 389.385 269.387 388.135 269.387ZM397.903 276.16C400.119 276.16 401.744 274.523 401.744 272.296C401.744 270.04 400.176 268.387 398.04 268.387C397.256 268.387 396.494 268.665 396.017 269.046H395.949L396.358 265.614H401.222V264.364H395.176L394.472 270.091L395.79 270.25C396.273 269.904 397.097 269.654 397.812 269.66C399.295 269.671 400.381 270.796 400.381 272.319C400.381 273.813 399.335 274.91 397.903 274.91C396.71 274.91 395.761 274.143 395.653 273.091H394.29C394.375 274.864 395.903 276.16 397.903 276.16ZM407.933 276.16C410.189 276.16 411.865 274.745 411.865 272.841C411.865 271.364 410.99 270.29 409.524 270.046V269.955C410.7 269.597 411.433 268.631 411.433 267.319C411.433 265.671 410.132 264.205 407.979 264.205C405.967 264.205 404.297 265.444 404.229 267.273H405.592C405.643 266.114 406.746 265.432 407.956 265.432C409.24 265.432 410.07 266.211 410.07 267.387C410.07 268.614 409.109 269.41 407.729 269.41H406.797V270.66H407.729C409.496 270.66 410.479 271.557 410.479 272.841C410.479 274.074 409.405 274.91 407.911 274.91C406.564 274.91 405.496 274.216 405.411 273.091H403.979C404.064 274.921 405.678 276.16 407.933 276.16ZM417.825 276.16C420.041 276.16 421.666 274.523 421.666 272.296C421.666 270.04 420.098 268.387 417.962 268.387C417.178 268.387 416.416 268.665 415.939 269.046H415.871L416.28 265.614H421.143V264.364H415.098L414.393 270.091L415.712 270.25C416.195 269.904 417.018 269.654 417.734 269.66C419.217 269.671 420.303 270.796 420.303 272.319C420.303 273.813 419.257 274.91 417.825 274.91C416.632 274.91 415.683 274.143 415.575 273.091H414.212C414.297 274.864 415.825 276.16 417.825 276.16Z" fill="#F2F2F2"/>
<circle opacity="0.1" cx="502" cy="271" r="8" fill="#8FFFBE"/>
<path d="M505.388 272.729L502.181 269.01C502.089 268.904 501.912 268.904 501.819 269.01L498.612 272.729C498.493 272.868 498.601 273.071 498.793 273.071H505.207C505.399 273.071 505.507 272.868 505.388 272.729Z" fill="#8FFFBE"/>
<path d="M522.636 273.955H523.909V270.841H527.023V269.569H523.909V266.455H522.636V269.569H519.523V270.841H522.636V273.955ZM533.479 276.16C535.803 276.16 537.422 274.802 537.433 272.91C537.422 271.438 536.439 270.188 535.183 269.955V269.887C536.274 269.603 536.99 268.535 537.002 267.296C536.99 265.523 535.502 264.205 533.479 264.205C531.433 264.205 529.945 265.523 529.956 267.296C529.945 268.535 530.661 269.603 531.774 269.887V269.955C530.496 270.188 529.513 271.438 529.524 272.91C529.513 274.802 531.132 276.16 533.479 276.16ZM533.479 274.91C531.882 274.91 530.899 274.091 530.911 272.841C530.899 271.529 531.984 270.591 533.479 270.591C534.95 270.591 536.036 271.529 536.047 272.841C536.036 274.091 535.053 274.91 533.479 274.91ZM533.479 269.387C532.206 269.387 531.308 268.591 531.32 267.387C531.308 266.205 532.172 265.432 533.479 265.432C534.763 265.432 535.627 266.205 535.638 267.387C535.627 268.591 534.729 269.387 533.479 269.387ZM540.252 276.091C540.814 276.091 541.274 275.631 541.274 275.069C541.274 274.506 540.814 274.046 540.252 274.046C539.689 274.046 539.229 274.506 539.229 275.069C539.229 275.631 539.689 276.091 540.252 276.091ZM543.658 276H550.999V274.75H545.59V274.66L548.203 271.864C550.203 269.722 550.794 268.722 550.794 267.432C550.794 265.637 549.34 264.205 547.294 264.205C545.254 264.205 543.703 265.591 543.703 267.637H545.044C545.044 266.313 545.902 265.432 547.249 265.432C548.51 265.432 549.476 266.205 549.476 267.432C549.476 268.506 548.845 269.302 547.499 270.773L543.658 274.978V276ZM559.277 273.819C559.277 275.091 560.073 276.16 561.55 276.16C563.004 276.16 563.8 275.091 563.8 273.819V273.205C563.8 271.932 563.027 270.864 561.55 270.864C560.095 270.864 559.277 271.932 559.277 273.205V273.819ZM553.482 267.16C553.482 268.432 554.277 269.5 555.754 269.5C557.209 269.5 558.004 268.432 558.004 267.16V266.546C558.004 265.273 557.232 264.205 555.754 264.205C554.3 264.205 553.482 265.273 553.482 266.546V267.16ZM553.913 276H555.209L563.209 264.364H561.913L553.913 276ZM560.436 273.205C560.436 272.5 560.754 271.841 561.55 271.841C562.368 271.841 562.641 272.5 562.641 273.205V273.819C562.641 274.523 562.345 275.182 561.55 275.182C560.732 275.182 560.436 274.523 560.436 273.819V273.205ZM554.641 266.546C554.641 265.841 554.959 265.182 555.754 265.182C556.573 265.182 556.845 265.841 556.845 266.546V267.16C556.845 267.864 556.55 268.523 555.754 268.523C554.936 268.523 554.641 267.864 554.641 267.16V266.546Z" fill="#8FFFBE"/>
<path d="M639.637 277.455H640.568V276.188C642.955 276.023 644.296 274.614 644.296 272.841C644.296 270.66 642.227 269.955 641.023 269.637L640.568 269.512V265.472C641.773 265.591 642.648 266.239 642.773 267.273H644.137C644.08 265.614 642.625 264.353 640.568 264.216V262.91H639.637V264.233C637.688 264.432 636.227 265.671 636.227 267.455C636.227 269.023 637.364 269.955 639.182 270.478L639.637 270.608V274.91C638.443 274.785 637.466 274.171 637.364 273H635.909C636.04 274.79 637.404 276.04 639.637 276.188V277.455ZM640.568 274.91V270.875L640.614 270.887C641.841 271.228 642.932 271.66 642.932 272.819C642.932 273.961 641.943 274.756 640.568 274.91ZM639.637 269.262C638.773 269.018 637.591 268.54 637.591 267.387C637.591 266.404 638.387 265.654 639.637 265.489V269.262ZM650.044 276.16C652.26 276.16 653.885 274.523 653.885 272.296C653.885 270.04 652.317 268.387 650.181 268.387C649.396 268.387 648.635 268.665 648.158 269.046H648.09L648.499 265.614H653.362V264.364H647.317L646.612 270.091L647.931 270.25C648.414 269.904 649.237 269.654 649.953 269.66C651.436 269.671 652.521 270.796 652.521 272.319C652.521 273.813 651.476 274.91 650.044 274.91C648.851 274.91 647.902 274.143 647.794 273.091H646.431C646.516 274.864 648.044 276.16 650.044 276.16ZM659.87 276.16C662.193 276.16 663.813 274.802 663.824 272.91C663.813 271.438 662.83 270.188 661.574 269.955V269.887C662.665 269.603 663.381 268.535 663.392 267.296C663.381 265.523 661.892 264.205 659.87 264.205C657.824 264.205 656.335 265.523 656.347 267.296C656.335 268.535 657.051 269.603 658.165 269.887V269.955C656.887 270.188 655.904 271.438 655.915 272.91C655.904 274.802 657.523 276.16 659.87 276.16ZM659.87 274.91C658.273 274.91 657.29 274.091 657.301 272.841C657.29 271.529 658.375 270.591 659.87 270.591C661.341 270.591 662.426 271.529 662.438 272.841C662.426 274.091 661.443 274.91 659.87 274.91ZM659.87 269.387C658.597 269.387 657.699 268.591 657.71 267.387C657.699 266.205 658.563 265.432 659.87 265.432C661.154 265.432 662.017 266.205 662.029 267.387C662.017 268.591 661.12 269.387 659.87 269.387ZM666.002 276H673.343V274.75H667.933V274.66L670.547 271.864C672.547 269.722 673.138 268.722 673.138 267.432C673.138 265.637 671.683 264.205 669.638 264.205C667.598 264.205 666.047 265.591 666.047 267.637H667.388C667.388 266.313 668.246 265.432 669.593 265.432C670.854 265.432 671.82 266.205 671.82 267.432C671.82 268.506 671.189 269.302 669.843 270.773L666.002 274.978V276ZM679.485 276.16C682.053 276.16 683.53 273.983 683.53 270.182C683.53 266.41 682.03 264.205 679.485 264.205C676.939 264.205 675.439 266.41 675.439 270.182C675.439 273.983 676.916 276.16 679.485 276.16ZM679.485 274.91C677.791 274.91 676.803 273.211 676.803 270.182C676.803 267.16 677.803 265.432 679.485 265.432C681.166 265.432 682.166 267.16 682.166 270.182C682.166 273.211 681.178 274.91 679.485 274.91ZM689.621 276.16C691.877 276.16 693.553 274.745 693.553 272.841C693.553 271.364 692.678 270.29 691.212 270.046V269.955C692.388 269.597 693.121 268.631 693.121 267.319C693.121 265.671 691.82 264.205 689.666 264.205C687.655 264.205 685.985 265.444 685.916 267.273H687.28C687.331 266.114 688.433 265.432 689.644 265.432C690.928 265.432 691.757 266.211 691.757 267.387C691.757 268.614 690.797 269.41 689.416 269.41H688.485V270.66H689.416C691.183 270.66 692.166 271.557 692.166 272.841C692.166 274.074 691.093 274.91 689.598 274.91C688.252 274.91 687.183 274.216 687.098 273.091H685.666C685.752 274.921 687.365 276.16 689.621 276.16ZM699.581 264.205C697.218 264.177 695.695 265.955 695.695 268.091C695.695 270.341 697.354 271.955 699.354 271.955C700.558 271.955 701.581 271.364 702.218 270.41H702.308C702.308 273.273 701.195 274.91 699.399 274.91C698.172 274.91 697.422 274.137 697.172 273.069H695.786C696.058 274.91 697.445 276.16 699.399 276.16C702.013 276.16 703.627 273.841 703.627 269.705C703.627 265.432 701.49 264.228 699.581 264.205ZM699.581 265.455C701.036 265.455 702.104 266.705 702.104 268.069C702.104 269.455 700.968 270.705 699.536 270.705C698.104 270.705 697.058 269.546 697.058 268.091C697.058 266.637 698.149 265.455 699.581 265.455ZM709.566 264.205C707.202 264.177 705.679 265.955 705.679 268.091C705.679 270.341 707.338 271.955 709.338 271.955C710.543 271.955 711.566 271.364 712.202 270.41H712.293C712.293 273.273 711.179 274.91 709.384 274.91C708.156 274.91 707.406 274.137 707.156 273.069H705.77C706.043 274.91 707.429 276.16 709.384 276.16C711.997 276.16 713.611 273.841 713.611 269.705C713.611 265.432 711.475 264.228 709.566 264.205ZM709.566 265.455C711.02 265.455 712.088 266.705 712.088 268.069C712.088 269.455 710.952 270.705 709.52 270.705C708.088 270.705 707.043 269.546 707.043 268.091C707.043 266.637 708.134 265.455 709.566 265.455Z" fill="#F2F2F2"/>
<path d="M249.409 290H256.227V288.75H250.818V278.364H249.409V290ZM258.387 290H259.728V281.273H258.387V290ZM259.069 279.819C259.592 279.819 260.024 279.41 260.024 278.91C260.024 278.41 259.592 278 259.069 278C258.546 278 258.115 278.41 258.115 278.91C258.115 279.41 258.546 279.819 259.069 279.819ZM266.14 281.273H264.276V279.182H262.935V281.273H261.617V282.41H262.935V287.864C262.935 289.387 264.162 290.114 265.299 290.114C265.799 290.114 266.117 290.023 266.299 289.955L266.026 288.75C265.912 288.773 265.731 288.819 265.435 288.819C264.844 288.819 264.276 288.637 264.276 287.5V282.41H266.14V281.273ZM271.882 290.182C273.655 290.182 274.95 289.296 275.359 287.978L274.064 287.614C273.723 288.523 272.933 288.978 271.882 288.978C270.308 288.978 269.223 287.961 269.16 286.091H275.496V285.523C275.496 282.273 273.564 281.16 271.746 281.16C269.382 281.16 267.814 283.023 267.814 285.705C267.814 288.387 269.359 290.182 271.882 290.182ZM269.16 284.932C269.251 283.574 270.212 282.364 271.746 282.364C273.2 282.364 274.132 283.455 274.132 284.932H269.16ZM281.241 290.182C283.173 290.182 284.445 289 284.673 287.455H283.332C283.082 288.41 282.286 288.978 281.241 288.978C279.65 288.978 278.627 287.66 278.627 285.637C278.627 283.66 279.673 282.364 281.241 282.364C282.423 282.364 283.127 283.091 283.332 283.887H284.673C284.445 282.25 283.059 281.16 281.218 281.16C278.854 281.16 277.286 283.023 277.286 285.682C277.286 288.296 278.786 290.182 281.241 290.182ZM290.338 290.182C292.702 290.182 294.293 288.387 294.293 285.682C294.293 282.955 292.702 281.16 290.338 281.16C287.975 281.16 286.384 282.955 286.384 285.682C286.384 288.387 287.975 290.182 290.338 290.182ZM290.338 288.978C288.543 288.978 287.725 287.432 287.725 285.682C287.725 283.932 288.543 282.364 290.338 282.364C292.134 282.364 292.952 283.932 292.952 285.682C292.952 287.432 292.134 288.978 290.338 288.978ZM296.5 290H297.841V281.273H296.5V290ZM297.182 279.819C297.704 279.819 298.136 279.41 298.136 278.91C298.136 278.41 297.704 278 297.182 278C296.659 278 296.227 278.41 296.227 278.91C296.227 279.41 296.659 279.819 297.182 279.819ZM301.798 284.75C301.798 283.228 302.741 282.364 304.025 282.364C305.269 282.364 306.025 283.177 306.025 284.546V290H307.366V284.455C307.366 282.228 306.178 281.16 304.411 281.16C303.093 281.16 302.275 281.75 301.866 282.637H301.752V281.273H300.457V290H301.798V284.75Z" fill="#F2F2F2"/>
<path d="M249.264 266H258.575V263.465H252.339V251.455H249.264V266ZM258.241 253.991H262.695V266H265.734V253.991H270.188V251.455H258.241V253.991ZM284.344 256.547C283.939 253.188 281.397 251.256 278.03 251.256C274.188 251.256 271.255 253.969 271.255 258.728C271.255 263.472 274.138 266.199 278.03 266.199C281.759 266.199 284.01 263.721 284.344 261.043L281.233 261.029C280.942 262.584 279.721 263.479 278.08 263.479C275.871 263.479 274.373 261.839 274.373 258.728C274.373 255.702 275.85 253.976 278.101 253.976C279.784 253.976 280.999 254.949 281.233 256.547H284.344Z" fill="white"/>
<path d="M231.891 271.001C231.891 281.988 222.984 290.895 211.997 290.895C201.009 290.895 192.102 281.988 192.102 271.001C192.102 260.013 201.009 251.106 211.997 251.106C222.984 251.106 231.891 260.013 231.891 271.001Z" fill="#59C19C"/>
<path d="M211.301 274.348L212.194 270.987L214.307 270.215L214.833 268.24L214.815 268.191L212.735 268.951L214.233 263.308H209.983L208.023 270.672L206.387 271.27L205.846 273.306L207.481 272.709L206.326 277.049H217.638L218.363 274.348H211.301Z" fill="white"/>
<defs>
<filter id="filter0_b" x="148" y="-4" width="618" height="342" filterUnits="userSpaceOnUse" color-interpolation-filters="sRGB">
<feFlood flood-opacity="0" result="BackgroundImageFix"/>
<feGaussianBlur in="BackgroundImage" stdDeviation="2"/>
<feComposite in2="SourceAlpha" operator="in" result="effect1_backgroundBlur"/>
<feBlend mode="normal" in="SourceGraphic" in2="effect1_backgroundBlur" result="shape"/>
</filter>
<filter id="filter1_d" x="-6.10352e-05" y="84.0001" width="770" height="239" filterUnits="userSpaceOnUse" color-interpolation-filters="sRGB">
<feFlood flood-opacity="0" result="BackgroundImageFix"/>
<feColorMatrix in="SourceAlpha" type="matrix" values="0 0 0 0 0 0 0 0 0 0 0 0 0 0 0 0 0 0 127 0"/>
<feOffset dy="20"/>
<feGaussianBlur stdDeviation="40"/>
<feColorMatrix type="matrix" values="0 0 0 0 0.211765 0 0 0 0 0.443137 0 0 0 0 0.913725 0 0 0 0.1 0"/>
<feBlend mode="normal" in2="BackgroundImageFix" result="effect1_dropShadow"/>
<feBlend mode="normal" in="SourceGraphic" in2="effect1_dropShadow" result="shape"/>
</filter>
<linearGradient id="paint0_linear" x1="211.989" y1="75.9906" x2="211.989" y2="115.996" gradientUnits="userSpaceOnUse">
<stop stop-color="#F9AA4B"/>
<stop offset="1" stop-color="#F7931A"/>
</linearGradient>
<clipPath id="clip0">
<rect width="40" height="40" fill="white" transform="translate(192 76.0001)"/>
</clipPath>
</defs>
</svg>
