<svg width="580" height="427" viewBox="0 0 580 427" fill="none" xmlns="http://www.w3.org/2000/svg">
<rect width="580" height="298" rx="16" fill="#35068C"/>
<path d="M498.629 64.2898H499.967V61.5952H502.661V60.2578H499.967V57.5682H498.629V60.2578H495.94V61.5952H498.629V64.2898ZM508.944 55.8182H507.447L504.907 57.4787V58.9503L507.343 57.3594H507.403V66H508.944V55.8182ZM511.838 66H518.54V64.6825H513.956V64.608L515.979 62.4901C517.844 60.6058 518.376 59.706 518.376 58.5675C518.376 56.9318 517.043 55.679 515.124 55.679C513.22 55.679 511.828 56.9119 511.828 58.7713H513.295C513.29 57.6776 513.996 56.9616 515.094 56.9616C516.129 56.9616 516.914 57.598 516.914 58.6122C516.914 59.5121 516.377 60.1584 515.283 61.3168L511.838 64.8864V66ZM523.925 66.1392C525.973 66.1392 527.435 64.6925 527.43 62.7088C527.435 60.7401 526.063 59.3082 524.208 59.3082C523.453 59.3082 522.752 59.5966 522.354 59.9844H522.294L522.617 57.1357H526.938V55.8182H521.34L520.768 60.9489L522.175 61.1577C522.558 60.8146 523.244 60.581 523.86 60.581C525.068 60.5909 525.943 61.4957 525.943 62.7386C525.943 63.9616 525.093 64.8466 523.925 64.8466C522.94 64.8466 522.16 64.2202 522.08 63.3452H520.589C520.649 64.9659 522.055 66.1392 523.925 66.1392ZM534.7 64.0909C534.705 65.2393 535.426 66.2088 536.773 66.2088C538.106 66.2088 538.837 65.2393 538.837 64.0909V63.554C538.837 62.4006 538.126 61.4361 536.773 61.4361C535.446 61.4361 534.705 62.4055 534.7 63.554V64.0909ZM529.58 58.2642C529.58 59.4126 530.305 60.3821 531.653 60.3821C532.98 60.3821 533.716 59.4176 533.711 58.2642V57.7273C533.716 56.5739 533 55.6094 531.653 55.6094C530.33 55.6094 529.58 56.5739 529.58 57.7273V58.2642ZM529.997 66H531.185L538.185 55.8182H536.997L529.997 66ZM535.859 63.554C535.864 62.9822 536.112 62.4304 536.773 62.4304C537.46 62.4304 537.673 62.9822 537.673 63.554V64.0909C537.673 64.6626 537.44 65.2145 536.773 65.2145C536.097 65.2145 535.864 64.6577 535.859 64.0909V63.554ZM530.743 57.7273C530.743 57.1605 530.991 56.6037 531.653 56.6037C532.339 56.6037 532.553 57.1555 532.553 57.7273V58.2642C532.553 58.8359 532.319 59.3878 531.653 59.3878C530.977 59.3878 530.743 58.8359 530.743 58.2642V57.7273Z" fill="#42FFFF"/>
<path d="M100.375 87.1392C102.622 87.1392 103.915 85.2351 103.915 81.9091C103.915 78.608 102.602 76.679 100.375 76.679C98.1477 76.679 96.8352 78.608 96.8352 81.9091C96.8352 85.2351 98.1278 87.1392 100.375 87.1392ZM100.375 86.0455C98.8935 86.0455 98.0284 84.5589 98.0284 81.9091C98.0284 79.2642 98.9034 77.7528 100.375 77.7528C101.847 77.7528 102.722 79.2642 102.722 81.9091C102.722 84.5589 101.857 86.0455 100.375 86.0455ZM106.464 87.0795C106.956 87.0795 107.358 86.6768 107.358 86.1847C107.358 85.6925 106.956 85.2898 106.464 85.2898C105.971 85.2898 105.569 85.6925 105.569 86.1847C105.569 86.6768 105.971 87.0795 106.464 87.0795ZM112.55 87.1392C114.797 87.1392 116.089 85.2351 116.089 81.9091C116.089 78.608 114.777 76.679 112.55 76.679C110.322 76.679 109.01 78.608 109.01 81.9091C109.01 85.2351 110.302 87.1392 112.55 87.1392ZM112.55 86.0455C111.068 86.0455 110.203 84.5589 110.203 81.9091C110.203 79.2642 111.078 77.7528 112.55 77.7528C114.021 77.7528 114.896 79.2642 114.896 81.9091C114.896 84.5589 114.031 86.0455 112.55 86.0455ZM121.44 87.1392C123.687 87.1392 124.979 85.2351 124.979 81.9091C124.979 78.608 123.667 76.679 121.44 76.679C119.212 76.679 117.9 78.608 117.9 81.9091C117.9 85.2351 119.192 87.1392 121.44 87.1392ZM121.44 86.0455C119.958 86.0455 119.093 84.5589 119.093 81.9091C119.093 79.2642 119.968 77.7528 121.44 77.7528C122.911 77.7528 123.786 79.2642 123.786 81.9091C123.786 84.5589 122.921 86.0455 121.44 86.0455ZM130.33 87.1392C132.577 87.1392 133.869 85.2351 133.869 81.9091C133.869 78.608 132.557 76.679 130.33 76.679C128.102 76.679 126.79 78.608 126.79 81.9091C126.79 85.2351 128.082 87.1392 130.33 87.1392ZM130.33 86.0455C128.848 86.0455 127.983 84.5589 127.983 81.9091C127.983 79.2642 128.858 77.7528 130.33 77.7528C131.801 77.7528 132.676 79.2642 132.676 81.9091C132.676 84.5589 131.811 86.0455 130.33 86.0455ZM139.16 87.1392C141.193 87.1392 142.61 85.951 142.62 84.2955C142.61 83.0078 141.75 81.9141 140.651 81.7102V81.6506C141.606 81.402 142.232 80.4673 142.242 79.3835C142.232 77.8324 140.93 76.679 139.16 76.679C137.37 76.679 136.068 77.8324 136.077 79.3835C136.068 80.4673 136.694 81.402 137.668 81.6506V81.7102C136.55 81.9141 135.69 83.0078 135.7 84.2955C135.69 85.951 137.107 87.1392 139.16 87.1392ZM139.16 86.0455C137.763 86.0455 136.903 85.3295 136.913 84.2358C136.903 83.0874 137.852 82.267 139.16 82.267C140.448 82.267 141.397 83.0874 141.407 84.2358C141.397 85.3295 140.537 86.0455 139.16 86.0455ZM139.16 81.2131C138.046 81.2131 137.261 80.517 137.271 79.4631C137.261 78.429 138.016 77.7528 139.16 77.7528C140.283 77.7528 141.039 78.429 141.049 79.4631C141.039 80.517 140.254 81.2131 139.16 81.2131ZM147.986 87.1392C150.234 87.1392 151.526 85.2351 151.526 81.9091C151.526 78.608 150.214 76.679 147.986 76.679C145.759 76.679 144.447 78.608 144.447 81.9091C144.447 85.2351 145.739 87.1392 147.986 87.1392ZM147.986 86.0455C146.505 86.0455 145.64 84.5589 145.64 81.9091C145.64 79.2642 146.515 77.7528 147.986 77.7528C149.458 77.7528 150.333 79.2642 150.333 81.9091C150.333 84.5589 149.468 86.0455 147.986 86.0455ZM157.812 87H161.491C163.897 87 164.891 85.8267 164.891 84.2955C164.891 82.6847 163.778 81.8097 162.843 81.75V81.6506C163.718 81.4119 164.494 80.8352 164.494 79.5227C164.494 78.0312 163.499 76.8182 161.372 76.8182H157.812V87ZM159.045 85.9062V82.3665H161.551C162.883 82.3665 163.718 83.2614 163.718 84.2955C163.718 85.1903 163.102 85.9062 161.491 85.9062H159.045ZM159.045 81.2926V77.9119H161.372C162.724 77.9119 163.32 78.6278 163.32 79.5227C163.32 80.5966 162.445 81.2926 161.332 81.2926H159.045ZM166.501 77.9119H169.702V87H170.935V77.9119H174.137V76.8182H166.501V77.9119ZM183.949 80C183.571 77.9119 181.901 76.679 179.853 76.679C177.247 76.679 175.358 78.6875 175.358 81.9091C175.358 85.1307 177.247 87.1392 179.853 87.1392C181.901 87.1392 183.571 85.9062 183.949 83.8182H182.716C182.418 85.2301 181.205 85.9858 179.853 85.9858C178.003 85.9858 176.551 84.554 176.551 81.9091C176.551 79.2642 178.003 77.8324 179.853 77.8324C181.205 77.8324 182.418 78.5881 182.716 80H183.949Z" fill="#F2F2F2"/>
<path d="M97.517 63H104.974C108.895 63 110.983 60.9545 110.983 58.1761C110.983 55.5938 109.134 54.0341 107.148 53.9403V53.7699C108.963 53.3608 110.301 52.0739 110.301 50.0199C110.301 47.4034 108.358 45.5455 104.506 45.5455H97.517V63ZM101.207 59.983V55.3466H104.301C106.074 55.3466 107.173 56.3693 107.173 57.8097C107.173 59.1222 106.278 59.983 104.216 59.983H101.207ZM101.207 52.8494V48.5284H104.011C105.648 48.5284 106.577 49.3722 106.577 50.6335C106.577 52.0142 105.452 52.8494 103.943 52.8494H101.207ZM113.316 63H116.947V49.9091H113.316V63ZM115.14 48.2216C116.222 48.2216 117.109 47.3949 117.109 46.3807C117.109 45.375 116.222 44.5483 115.14 44.5483C114.066 44.5483 113.18 45.375 113.18 46.3807C113.18 47.3949 114.066 48.2216 115.14 48.2216ZM126.818 49.9091H124.355V46.7727H120.724V49.9091H118.935V52.6364H120.724V59.4545C120.707 62.0199 122.455 63.2898 125.088 63.179C126.026 63.1449 126.69 62.9574 127.057 62.8381L126.486 60.1364C126.307 60.1705 125.923 60.2557 125.582 60.2557C124.858 60.2557 124.355 59.983 124.355 58.9773V52.6364H126.818V49.9091ZM134.957 63.2557C138.443 63.2557 140.634 61.2102 140.804 58.2017H137.378C137.165 59.5994 136.244 60.3835 135 60.3835C133.304 60.3835 132.205 58.9602 132.205 56.4545C132.205 53.983 133.312 52.5682 135 52.5682C136.33 52.5682 137.182 53.446 137.378 54.75H140.804C140.651 51.7244 138.358 49.7386 134.94 49.7386C130.969 49.7386 128.514 52.4915 128.514 56.5057C128.514 60.4858 130.926 63.2557 134.957 63.2557ZM149.043 63.2557C153.015 63.2557 155.487 60.5369 155.487 56.5057C155.487 52.4489 153.015 49.7386 149.043 49.7386C145.072 49.7386 142.6 52.4489 142.6 56.5057C142.6 60.5369 145.072 63.2557 149.043 63.2557ZM149.06 60.4432C147.228 60.4432 146.29 58.7642 146.29 56.4801C146.29 54.196 147.228 52.5085 149.06 52.5085C150.859 52.5085 151.796 54.196 151.796 56.4801C151.796 58.7642 150.859 60.4432 149.06 60.4432ZM157.847 63H161.478V49.9091H157.847V63ZM159.671 48.2216C160.754 48.2216 161.64 47.3949 161.64 46.3807C161.64 45.375 160.754 44.5483 159.671 44.5483C158.597 44.5483 157.711 45.375 157.711 46.3807C157.711 47.3949 158.597 48.2216 159.671 48.2216ZM168.017 55.4318C168.026 53.7443 169.031 52.7557 170.497 52.7557C171.955 52.7557 172.832 53.7102 172.824 55.3125V63H176.455V54.6648C176.455 51.6136 174.665 49.7386 171.938 49.7386C169.994 49.7386 168.588 50.6932 168 52.2188H167.847V49.9091H164.386V63H168.017V55.4318Z" fill="white"/>
<path opacity="0.7" d="M187.148 60H191.858C194.523 60 195.83 58.642 195.83 56.8295C195.83 55.0682 194.58 54.0341 193.341 53.9716V53.858C194.477 53.5909 195.375 52.7955 195.375 51.3807C195.375 49.6477 194.125 48.3636 191.602 48.3636H187.148V60ZM189.256 58.2386V54.8295H191.58C192.881 54.8295 193.688 55.625 193.688 56.6648C193.688 57.5909 193.051 58.2386 191.523 58.2386H189.256ZM189.256 53.3125V50.1023H191.386C192.625 50.1023 193.267 50.7557 193.267 51.6534C193.267 52.6761 192.438 53.3125 191.341 53.3125H189.256ZM197.152 50.1307H200.749V60H202.839V50.1307H206.436V48.3636H197.152V50.1307ZM217.686 52.2898C217.328 49.7045 215.339 48.2045 212.76 48.2045C209.72 48.2045 207.43 50.4205 207.43 54.1818C207.43 57.9375 209.692 60.1591 212.76 60.1591C215.527 60.1591 217.362 58.3693 217.686 56.1477L215.561 56.1364C215.294 57.5 214.18 58.267 212.788 58.267C210.902 58.267 209.55 56.8523 209.55 54.1818C209.55 51.5568 210.891 50.0966 212.794 50.0966C214.209 50.0966 215.317 50.8977 215.561 52.2898H217.686Z" fill="#CFCFCF"/>
<circle cx="60" cy="60" r="20" fill="#C4C4C4"/>
<g clip-path="url(#clip0)">
<path d="M79.4018 64.8367C76.7296 75.5567 65.8686 82.0732 55.1639 79.4009C44.4436 76.7287 37.927 65.8681 40.5993 55.1635C43.2715 44.4435 54.1168 37.927 64.8371 40.5993C75.5418 43.2559 82.0742 54.1165 79.4018 64.8367Z" fill="url(#paint0_linear)"/>
<path d="M69.5223 57.508C69.9129 54.8517 67.8973 53.4142 65.116 52.4611L66.0223 48.8517L63.8348 48.3049L62.9598 51.8205C62.3817 51.6799 61.7879 51.5392 61.1942 51.4142L62.0692 47.883L59.8817 47.3361L58.991 50.9299C58.5067 50.8205 58.0379 50.7111 57.5848 50.6017V50.5861L54.5535 49.8361L53.9754 52.1799C53.9754 52.1799 55.6004 52.5549 55.5692 52.5705C56.4598 52.7892 56.616 53.383 56.5848 53.8517L55.5535 57.9611C55.616 57.9767 55.6942 57.9924 55.7879 58.0392C55.7098 58.0236 55.6317 58.008 55.5535 57.9767L54.116 63.7267C54.0067 63.9924 53.7254 64.3986 53.116 64.2424C53.1317 64.2736 51.5223 63.8517 51.5223 63.8517L50.4285 66.3674L53.2879 67.0861C53.8192 67.2267 54.3348 67.3517 54.8504 67.4924L53.9442 71.133L56.1317 71.6799L57.0379 68.0705C57.6317 68.2267 58.2254 68.383 58.7879 68.5236L57.8973 72.1174L60.0848 72.6642L60.991 69.0236C64.741 69.7267 67.5535 69.4455 68.7254 66.0549C69.6785 63.3361 68.6785 61.758 66.7098 60.7267C68.1629 60.3986 69.241 59.4455 69.5223 57.508ZM64.5067 64.5392C63.8348 67.258 59.241 65.7892 57.7567 65.4142L58.9598 60.5861C60.4442 60.9611 65.2254 61.6955 64.5067 64.5392ZM65.1942 57.4611C64.5692 59.9455 60.7567 58.6799 59.5223 58.3674L60.616 53.9924C61.8504 54.3049 65.8348 54.883 65.1942 57.4611Z" fill="white"/>
</g>
<g filter="url(#filter0_b)">
<rect x="64" y="243" width="178" height="184" rx="16" fill="#491F98"/>
</g>
<path d="M84.0696 273.455H81.4347V288H84.0696V273.455ZM89.5803 281.608C89.5803 280.031 90.532 279.122 91.8886 279.122C93.2167 279.122 94.0121 279.996 94.0121 281.452V288H96.5832V281.054C96.5903 278.44 95.0988 276.949 92.8474 276.949C91.2138 276.949 90.0917 277.73 89.5945 278.945H89.4667V277.091H87.0093V288H89.5803V281.608ZM104.155 288.213C106.897 288.213 108.644 286.587 108.829 284.271H106.371C106.151 285.443 105.306 286.118 104.177 286.118C102.572 286.118 101.535 284.776 101.535 282.545C101.535 280.344 102.593 279.023 104.177 279.023C105.412 279.023 106.172 279.818 106.371 280.869H108.829C108.651 278.504 106.804 276.949 104.141 276.949C100.945 276.949 98.9281 279.257 98.9281 282.588C98.9281 285.891 100.895 288.213 104.155 288.213ZM111.14 288H113.711V281.587C113.711 280.202 114.755 279.222 116.168 279.222C116.601 279.222 117.141 279.3 117.361 279.371V277.006C117.127 276.963 116.722 276.935 116.438 276.935C115.188 276.935 114.144 277.645 113.746 278.909H113.633V277.091H111.14V288ZM123.65 288.213C126.192 288.213 127.94 286.97 128.394 285.074L125.994 284.804C125.646 285.727 124.793 286.21 123.685 286.21C122.023 286.21 120.923 285.116 120.901 283.249H128.501V282.46C128.501 278.632 126.2 276.949 123.515 276.949C120.39 276.949 118.351 279.243 118.351 282.609C118.351 286.033 120.361 288.213 123.65 288.213ZM120.908 281.516C120.986 280.124 122.016 278.952 123.55 278.952C125.028 278.952 126.022 280.031 126.036 281.516H120.908ZM134.015 288.22C135.727 288.22 136.749 287.418 137.218 286.501H137.303V288H139.775V280.699C139.775 277.815 137.424 276.949 135.343 276.949C133.049 276.949 131.288 277.972 130.719 279.96L133.12 280.301C133.376 279.555 134.1 278.916 135.357 278.916C136.55 278.916 137.204 279.527 137.204 280.599V280.642C137.204 281.381 136.43 281.416 134.505 281.622C132.388 281.849 130.364 282.482 130.364 284.939C130.364 287.084 131.934 288.22 134.015 288.22ZM134.683 286.331C133.61 286.331 132.843 285.841 132.843 284.896C132.843 283.909 133.702 283.497 134.853 283.334C135.528 283.241 136.877 283.071 137.211 282.801V284.087C137.211 285.301 136.231 286.331 134.683 286.331ZM151.182 279.974C150.827 278.128 149.35 276.949 146.793 276.949C144.165 276.949 142.375 278.241 142.383 280.259C142.375 281.849 143.356 282.901 145.451 283.334L147.312 283.724C148.313 283.945 148.782 284.349 148.782 284.967C148.782 285.713 147.972 286.274 146.75 286.274C145.571 286.274 144.804 285.763 144.584 284.783L142.077 285.024C142.397 287.027 144.08 288.213 146.758 288.213C149.485 288.213 151.41 286.8 151.417 284.733C151.41 283.178 150.408 282.226 148.348 281.778L146.488 281.381C145.38 281.132 144.939 280.749 144.946 280.116C144.939 279.378 145.756 278.866 146.829 278.866C148.015 278.866 148.64 279.513 148.838 280.23L151.182 279.974ZM158.566 288.213C161.109 288.213 162.856 286.97 163.311 285.074L160.91 284.804C160.562 285.727 159.71 286.21 158.602 286.21C156.94 286.21 155.839 285.116 155.818 283.249H163.417V282.46C163.417 278.632 161.116 276.949 158.431 276.949C155.306 276.949 153.268 279.243 153.268 282.609C153.268 286.033 155.278 288.213 158.566 288.213ZM155.825 281.516C155.903 280.124 156.933 278.952 158.467 278.952C159.944 278.952 160.938 280.031 160.953 281.516H155.825ZM170.953 288H173.524V277.091H170.953V288ZM172.246 275.543C173.062 275.543 173.73 274.918 173.73 274.151C173.73 273.376 173.062 272.751 172.246 272.751C171.422 272.751 170.754 273.376 170.754 274.151C170.754 274.918 171.422 275.543 172.246 275.543ZM178.939 281.608C178.939 280.031 179.891 279.122 181.247 279.122C182.575 279.122 183.371 279.996 183.371 281.452V288H185.942V281.054C185.949 278.44 184.457 276.949 182.206 276.949C180.572 276.949 179.45 277.73 178.953 278.945H178.825V277.091H176.368V288H178.939V281.608ZM80.7955 303.663H85.2912V316H87.9048V303.663H92.4006V301.455H80.7955V303.663ZM93.5913 316H96.1624V309.587C96.1624 308.202 97.2064 307.222 98.6197 307.222C99.053 307.222 99.5928 307.3 99.8129 307.371V305.006C99.5786 304.963 99.1737 304.935 98.8896 304.935C97.6396 304.935 96.5956 305.645 96.1979 306.909H96.0842V305.091H93.5913V316ZM104.645 316.22C106.357 316.22 107.38 315.418 107.849 314.501H107.934V316H110.405V308.699C110.405 305.815 108.054 304.949 105.974 304.949C103.679 304.949 101.918 305.972 101.35 307.96L103.75 308.301C104.006 307.555 104.731 306.916 105.988 306.916C107.181 306.916 107.834 307.527 107.834 308.599V308.642C107.834 309.381 107.06 309.416 105.135 309.622C103.019 309.849 100.995 310.482 100.995 312.939C100.995 315.084 102.564 316.22 104.645 316.22ZM105.313 314.331C104.241 314.331 103.474 313.841 103.474 312.896C103.474 311.909 104.333 311.497 105.483 311.334C106.158 311.241 107.508 311.071 107.841 310.801V312.087C107.841 313.301 106.861 314.331 105.313 314.331ZM117.239 316.192C119.114 316.192 119.959 315.077 120.364 314.281H120.52V316H123.049V301.455H120.47V306.895H120.364C119.973 306.107 119.171 304.949 117.246 304.949C114.725 304.949 112.743 306.923 112.743 310.56C112.743 314.153 114.668 316.192 117.239 316.192ZM117.956 314.082C116.259 314.082 115.364 312.591 115.364 310.545C115.364 308.514 116.245 307.058 117.956 307.058C119.611 307.058 120.52 308.429 120.52 310.545C120.52 312.662 119.597 314.082 117.956 314.082ZM130.818 316.213C133.36 316.213 135.108 314.97 135.562 313.074L133.162 312.804C132.813 313.727 131.961 314.21 130.853 314.21C129.191 314.21 128.09 313.116 128.069 311.249H135.669V310.46C135.669 306.632 133.367 304.949 130.683 304.949C127.558 304.949 125.519 307.243 125.519 310.609C125.519 314.033 127.529 316.213 130.818 316.213ZM128.076 309.516C128.154 308.124 129.184 306.952 130.718 306.952C132.196 306.952 133.19 308.031 133.204 309.516H128.076Z" fill="white"/>
<path d="M87.7727 390.273H89.1364C89.0739 388.517 87.4545 387.205 85.2045 387.205C82.9773 387.205 81.2273 388.5 81.2273 390.455C81.2273 392.023 82.3636 392.955 84.1818 393.477L85.6136 393.886C86.8409 394.227 87.9318 394.659 87.9318 395.818C87.9318 397.091 86.7045 397.932 85.0909 397.932C83.7045 397.932 82.4773 397.318 82.3636 396H80.9091C81.0455 397.909 82.5909 399.205 85.0909 399.205C87.7727 399.205 89.2955 397.727 89.2955 395.841C89.2955 393.659 87.2273 392.955 86.0227 392.636L84.8409 392.318C83.9773 392.091 82.5909 391.636 82.5909 390.386C82.5909 389.273 83.6136 388.455 85.1591 388.455C86.5682 388.455 87.6364 389.125 87.7727 390.273ZM95.2495 399.182C97.0222 399.182 98.3177 398.295 98.7268 396.977L97.4313 396.614C97.0904 397.523 96.3006 397.977 95.2495 397.977C93.6756 397.977 92.5904 396.96 92.5279 395.091H98.8631V394.523C98.8631 391.273 96.9313 390.159 95.1131 390.159C92.7495 390.159 91.1813 392.023 91.1813 394.705C91.1813 397.386 92.7268 399.182 95.2495 399.182ZM92.5279 393.932C92.6188 392.574 93.579 391.364 95.1131 391.364C96.5677 391.364 97.4995 392.455 97.4995 393.932H92.5279ZM102.404 387.364H101.063V399H102.404V387.364ZM106.361 387.364H105.02V399H106.361V387.364ZM117.182 399.182C119.546 399.182 121.137 397.386 121.137 394.682C121.137 391.955 119.546 390.159 117.182 390.159C114.818 390.159 113.228 391.955 113.228 394.682C113.228 397.386 114.818 399.182 117.182 399.182ZM117.182 397.977C115.387 397.977 114.568 396.432 114.568 394.682C114.568 392.932 115.387 391.364 117.182 391.364C118.978 391.364 119.796 392.932 119.796 394.682C119.796 396.432 118.978 397.977 117.182 397.977ZM123.344 402.273H124.684V397.659H124.798C125.094 398.136 125.662 399.182 127.344 399.182C129.525 399.182 131.048 397.432 131.048 394.659C131.048 391.909 129.525 390.159 127.321 390.159C125.616 390.159 125.094 391.205 124.798 391.659H124.639V390.273H123.344V402.273ZM124.662 394.636C124.662 392.682 125.525 391.364 127.162 391.364C128.866 391.364 129.707 392.795 129.707 394.636C129.707 396.5 128.844 397.977 127.162 397.977C125.548 397.977 124.662 396.614 124.662 394.636ZM137.049 390.273H135.185V388.182H133.844V390.273H132.526V391.409H133.844V396.864C133.844 398.386 135.072 399.114 136.208 399.114C136.708 399.114 137.026 399.023 137.208 398.955L136.935 397.75C136.822 397.773 136.64 397.818 136.344 397.818C135.754 397.818 135.185 397.636 135.185 396.5V391.409H137.049V390.273ZM139.226 399H140.567V390.273H139.226V399ZM139.908 388.818C140.431 388.818 140.862 388.409 140.862 387.909C140.862 387.409 140.431 387 139.908 387C139.385 387 138.953 387.409 138.953 387.909C138.953 388.409 139.385 388.818 139.908 388.818ZM146.728 399.182C149.092 399.182 150.683 397.386 150.683 394.682C150.683 391.955 149.092 390.159 146.728 390.159C144.365 390.159 142.774 391.955 142.774 394.682C142.774 397.386 144.365 399.182 146.728 399.182ZM146.728 397.977C144.933 397.977 144.115 396.432 144.115 394.682C144.115 392.932 144.933 391.364 146.728 391.364C148.524 391.364 149.342 392.932 149.342 394.682C149.342 396.432 148.524 397.977 146.728 397.977ZM154.231 393.75C154.231 392.227 155.174 391.364 156.458 391.364C157.702 391.364 158.458 392.176 158.458 393.545V399H159.799V393.455C159.799 391.227 158.611 390.159 156.844 390.159C155.526 390.159 154.708 390.75 154.299 391.636H154.185V390.273H152.89V399H154.231V393.75Z" fill="#F2F2F2"/>
<path d="M86.6307 359.341H89.6818V354.832H94.1903V351.781H89.6818V347.273H86.6307V351.781H82.1222V354.832H86.6307V359.341ZM97.9545 362H101.764L109.008 347.605V344.545H96.7613V347.562H105.19V347.682L97.9545 362ZM117.918 362.239C121.805 362.239 124.447 359.707 124.438 356.179C124.447 352.838 122.111 350.435 118.967 350.435C117.432 350.435 116.111 351.074 115.498 351.935H115.395L115.847 347.562H123.475V344.545H112.805L111.978 353.75L115.259 354.338C115.796 353.614 116.836 353.162 117.867 353.162C119.623 353.17 120.884 354.44 120.884 356.273C120.884 358.088 119.648 359.341 117.918 359.341C116.452 359.341 115.268 358.42 115.182 357.065H111.603C111.671 360.082 114.305 362.239 117.918 362.239ZM136.806 358.727C136.814 360.824 138.153 362.605 140.65 362.605C143.121 362.605 144.502 360.824 144.493 358.727V357.807C144.502 355.693 143.155 353.929 140.65 353.929C138.187 353.929 136.814 355.71 136.806 357.807V358.727ZM127.849 348.739C127.857 350.835 129.195 352.599 131.684 352.599C134.164 352.599 135.545 350.852 135.536 348.739V347.818C135.545 345.705 134.198 343.94 131.684 343.94C129.246 343.94 127.857 345.705 127.849 347.818V348.739ZM128.684 362H130.908L142.908 344.545H140.684L128.684 362ZM139.286 357.807C139.295 356.972 139.627 356.111 140.65 356.111C141.724 356.111 142.005 356.972 141.996 357.807V358.727C142.005 359.562 141.689 360.406 140.65 360.406C139.61 360.406 139.295 359.537 139.286 358.727V357.807ZM130.346 347.818C130.354 347.009 130.67 346.122 131.684 346.122C132.758 346.122 133.047 346.983 133.039 347.818V348.739C133.047 349.574 132.724 350.418 131.684 350.418C130.678 350.418 130.354 349.574 130.346 348.739V347.818Z" fill="white"/>
<path d="M171.71 353.29L166.71 348.29C166.615 348.199 166.503 348.127 166.38 348.08C166.137 347.98 165.864 347.98 165.62 348.08C165.498 348.127 165.385 348.199 165.29 348.29L160.29 353.29C160.197 353.383 160.123 353.494 160.073 353.616C160.022 353.737 159.996 353.868 159.996 354C159.996 354.266 160.102 354.522 160.29 354.71C160.479 354.898 160.734 355.004 161 355.004C161.267 355.004 161.522 354.898 161.71 354.71L165 351.41V359C165 359.265 165.106 359.519 165.293 359.707C165.481 359.894 165.735 360 166 360C166.266 360 166.52 359.894 166.707 359.707C166.895 359.519 167 359.265 167 359V351.41L170.29 354.71C170.383 354.804 170.494 354.878 170.616 354.929C170.738 354.979 170.868 355.006 171 355.006C171.132 355.006 171.263 354.979 171.385 354.929C171.507 354.878 171.617 354.804 171.71 354.71C171.804 354.617 171.878 354.506 171.929 354.384C171.98 354.263 172.006 354.132 172.006 354C172.006 353.868 171.98 353.737 171.929 353.615C171.878 353.493 171.804 353.383 171.71 353.29Z" fill="#FD8589"/>
<g filter="url(#filter1_d)">
<rect x="355" y="255" width="169" height="84" rx="16" fill="#491F98"/>
<path d="M405.322 296.182H407.334L407.351 294.213C411.041 293.932 413.18 291.972 413.189 289.014C413.18 286.108 410.99 284.565 407.956 283.884L407.453 283.764L407.487 279.503C408.621 279.767 409.311 280.491 409.413 281.565H412.95C412.907 278.744 410.802 276.724 407.521 276.366L407.538 274.364H405.527L405.51 276.349C402.177 276.673 399.825 278.685 399.842 281.591C399.834 284.165 401.649 285.639 404.598 286.347L405.416 286.551L405.373 291.06C403.984 290.795 403.047 289.943 402.953 288.52H399.382C399.467 291.963 401.726 293.889 405.339 294.205L405.322 296.182ZM407.385 291.06L407.419 287.08C408.74 287.497 409.456 288.034 409.464 289.006C409.456 290.037 408.672 290.804 407.385 291.06ZM405.442 283.244C404.376 282.878 403.609 282.324 403.626 281.344C403.626 280.432 404.274 279.724 405.476 279.477L405.442 283.244ZM423.402 276.545H419.934L415.613 279.281V282.554L419.61 280.048H419.712V294H423.402V276.545ZM434.166 294.239C438.052 294.239 440.694 291.707 440.686 288.179C440.694 284.838 438.359 282.435 435.214 282.435C433.68 282.435 432.359 283.074 431.745 283.935H431.643L432.095 279.562H439.723V276.545H429.052L428.226 285.75L431.507 286.338C432.044 285.614 433.083 285.162 434.115 285.162C435.87 285.17 437.132 286.44 437.132 288.273C437.132 290.088 435.896 291.341 434.166 291.341C432.7 291.341 431.515 290.42 431.43 289.065H427.851C427.919 292.082 430.552 294.239 434.166 294.239ZM445.117 294.222C446.208 294.222 447.154 293.31 447.162 292.176C447.154 291.06 446.208 290.148 445.117 290.148C443.992 290.148 443.063 291.06 443.071 292.176C443.063 293.31 443.992 294.222 445.117 294.222ZM456.262 294.239C460.182 294.239 462.986 292.082 462.978 289.099C462.986 286.926 461.605 285.375 459.04 285.051V284.915C460.992 284.565 462.338 283.185 462.33 281.224C462.338 278.472 459.926 276.307 456.313 276.307C452.733 276.307 450.04 278.403 449.989 281.42H453.526C453.568 280.091 454.787 279.23 456.296 279.23C457.787 279.23 458.784 280.134 458.776 281.446C458.784 282.818 457.617 283.747 455.938 283.747H454.31V286.457H455.938C457.915 286.457 459.151 287.446 459.142 288.852C459.151 290.241 457.958 291.196 456.27 291.196C454.642 291.196 453.424 290.344 453.355 289.065H449.639C449.699 292.116 452.426 294.239 456.262 294.239ZM465.87 294H478.313V290.983H470.984V290.864L473.532 288.366C477.12 285.094 478.083 283.457 478.083 281.472C478.083 278.446 475.612 276.307 471.87 276.307C468.205 276.307 465.691 278.497 465.7 281.923H469.203C469.194 280.253 470.251 279.23 471.845 279.23C473.379 279.23 474.521 280.185 474.521 281.719C474.521 283.108 473.669 284.062 472.083 285.588L465.87 291.341V294Z" fill="white"/>
<path d="M388.609 319H390.018V314.75H392.564C395.274 314.75 396.496 313.102 396.496 311.045C396.496 308.989 395.274 307.364 392.541 307.364H388.609V319ZM390.018 313.5V308.614H392.496C394.388 308.614 395.109 309.648 395.109 311.045C395.109 312.443 394.388 313.5 392.518 313.5H390.018ZM398.744 319H400.085V313.477C400.085 312.295 401.017 311.432 402.289 311.432C402.647 311.432 403.017 311.5 403.107 311.523V310.159C402.954 310.148 402.602 310.136 402.403 310.136C401.357 310.136 400.448 310.727 400.13 311.591H400.039V310.273H398.744V319ZM404.857 319H406.198V310.273H404.857V319ZM405.539 308.818C406.062 308.818 406.493 308.409 406.493 307.909C406.493 307.409 406.062 307 405.539 307C405.016 307 404.584 307.409 404.584 307.909C404.584 308.409 405.016 308.818 405.539 308.818ZM412.359 319.182C414.291 319.182 415.564 318 415.791 316.455H414.45C414.2 317.409 413.405 317.977 412.359 317.977C410.768 317.977 409.746 316.659 409.746 314.636C409.746 312.659 410.791 311.364 412.359 311.364C413.541 311.364 414.246 312.091 414.45 312.886H415.791C415.564 311.25 414.177 310.159 412.337 310.159C409.973 310.159 408.405 312.023 408.405 314.682C408.405 317.295 409.905 319.182 412.359 319.182ZM421.57 319.182C423.343 319.182 424.639 318.295 425.048 316.977L423.752 316.614C423.411 317.523 422.622 317.977 421.57 317.977C419.997 317.977 418.911 316.96 418.849 315.091H425.184V314.523C425.184 311.273 423.252 310.159 421.434 310.159C419.07 310.159 417.502 312.023 417.502 314.705C417.502 317.386 419.048 319.182 421.57 319.182ZM418.849 313.932C418.94 312.574 419.9 311.364 421.434 311.364C422.889 311.364 423.82 312.455 423.82 313.932H418.849ZM432.044 319H433.385V310.273H432.044V319ZM432.726 308.818C433.248 308.818 433.68 308.409 433.68 307.909C433.68 307.409 433.248 307 432.726 307C432.203 307 431.771 307.409 431.771 307.909C431.771 308.409 432.203 308.818 432.726 308.818ZM437.342 313.75C437.342 312.227 438.285 311.364 439.569 311.364C440.813 311.364 441.569 312.176 441.569 313.545V319H442.91V313.455C442.91 311.227 441.722 310.159 439.955 310.159C438.637 310.159 437.819 310.75 437.41 311.636H437.296V310.273H436.001V319H437.342V313.75ZM453.476 319.182C455.157 319.182 455.726 318.136 456.021 317.659H456.18V319H457.476V307.364H456.135V311.659H456.021C455.726 311.205 455.203 310.159 453.498 310.159C451.294 310.159 449.771 311.909 449.771 314.659C449.771 317.432 451.294 319.182 453.476 319.182ZM453.657 317.977C451.976 317.977 451.112 316.5 451.112 314.636C451.112 312.795 451.953 311.364 453.657 311.364C455.294 311.364 456.157 312.682 456.157 314.636C456.157 316.614 455.271 317.977 453.657 317.977ZM463.823 319.182C466.187 319.182 467.778 317.386 467.778 314.682C467.778 311.955 466.187 310.159 463.823 310.159C461.459 310.159 459.868 311.955 459.868 314.682C459.868 317.386 461.459 319.182 463.823 319.182ZM463.823 317.977C462.028 317.977 461.209 316.432 461.209 314.682C461.209 312.932 462.028 311.364 463.823 311.364C465.618 311.364 466.437 312.932 466.437 314.682C466.437 316.432 465.618 317.977 463.823 317.977ZM471.325 307.364H469.984V319H471.325V307.364ZM475.282 307.364H473.941V319H475.282V307.364ZM480.466 319.205C481.989 319.205 482.785 318.386 483.057 317.818H483.125V319H484.466V313.25C484.466 310.477 482.353 310.159 481.239 310.159C479.921 310.159 478.421 310.614 477.739 312.205L479.012 312.659C479.307 312.023 480.006 311.341 481.285 311.341C482.518 311.341 483.125 311.994 483.125 313.114V313.159C483.125 313.807 482.466 313.75 480.875 313.955C479.256 314.165 477.489 314.523 477.489 316.523C477.489 318.227 478.807 319.205 480.466 319.205ZM480.671 318C479.603 318 478.83 317.523 478.83 316.591C478.83 315.568 479.762 315.25 480.807 315.114C481.375 315.045 482.898 314.886 483.125 314.614V315.841C483.125 316.932 482.262 318 480.671 318ZM487.074 319H488.415V313.477C488.415 312.295 489.347 311.432 490.619 311.432C490.977 311.432 491.347 311.5 491.437 311.523V310.159C491.284 310.148 490.932 310.136 490.733 310.136C489.687 310.136 488.778 310.727 488.46 311.591H488.369V310.273H487.074V319Z" fill="#F2F2F2"/>
</g>
<path d="M73.801 169.562C61.8839 169.562 40 184.55 40 184.55V250H540V134.589C540 134.589 518.954 143.744 509.388 140.584C495.902 136.13 483.24 114.754 474.949 114.105C462.194 113.105 466.02 119.6 439.872 119.6C415 119.6 426.185 132.59 401.607 132.59C388.15 132.59 368.444 143.585 368.444 143.585H329.541C311.046 143.585 307.276 175.903 286.811 173.562C266.976 171.292 267.679 166.065 251.735 166.065C236.14 166.065 233.738 173.711 217.934 172.06C198.801 170.062 199.439 148.578 173.291 148.578C141.403 148.578 135.663 175.058 110.153 177.056C91.4237 178.523 94.3698 169.562 73.801 169.562Z" fill="url(#paint1_linear)"/>
<path d="M40 185C40 185 61.8839 170 73.801 170C94.3698 170 91.4237 178.969 110.153 177.5C135.663 175.5 141.403 149 173.291 149C199.439 149 198.801 170.5 217.934 172.5C233.738 174.152 236.14 166.5 251.735 166.5C267.679 166.5 266.976 171.732 286.811 174.003C307.276 176.346 311.046 144.003 329.541 144.003C345.139 144.003 368.444 144.003 368.444 144.003C368.444 144.003 388.15 133 401.607 133C426.185 133 415 120 439.872 120C466.02 120 462.194 113.5 474.949 114.5C483.24 115.15 495.902 136.543 509.388 141C518.954 144.162 540 135 540 135" stroke="#6EDCB5" stroke-width="4"/>
<defs>
<filter id="filter0_b" x="-186" y="-7" width="678" height="684" filterUnits="userSpaceOnUse" color-interpolation-filters="sRGB">
<feFlood flood-opacity="0" result="BackgroundImageFix"/>
<feGaussianBlur in="BackgroundImage" stdDeviation="125"/>
<feComposite in2="SourceAlpha" operator="in" result="effect1_backgroundBlur"/>
<feBlend mode="normal" in="SourceGraphic" in2="effect1_backgroundBlur" result="shape"/>
</filter>
<filter id="filter1_d" x="330" y="235" width="249" height="164" filterUnits="userSpaceOnUse" color-interpolation-filters="sRGB">
<feFlood flood-opacity="0" result="BackgroundImageFix"/>
<feColorMatrix in="SourceAlpha" type="matrix" values="0 0 0 0 0 0 0 0 0 0 0 0 0 0 0 0 0 0 127 0"/>
<feOffset dx="15" dy="20"/>
<feGaussianBlur stdDeviation="20"/>
<feColorMatrix type="matrix" values="0 0 0 0 0.454902 0 0 0 0 0.458824 0 0 0 0 0.854902 0 0 0 0.15 0"/>
<feBlend mode="normal" in2="BackgroundImageFix" result="effect1_dropShadow"/>
<feBlend mode="normal" in="SourceGraphic" in2="effect1_dropShadow" result="shape"/>
</filter>
<linearGradient id="paint0_linear" x1="59.9893" y1="39.9905" x2="59.9893" y2="79.9961" gradientUnits="userSpaceOnUse">
<stop stop-color="#F9AA4B"/>
<stop offset="1" stop-color="#F7931A"/>
</linearGradient>
<linearGradient id="paint1_linear" x1="290" y1="114" x2="290" y2="250" gradientUnits="userSpaceOnUse">
<stop stop-color="#6EDCB5" stop-opacity="0.4"/>
<stop offset="1" stop-color="#6EDCB5" stop-opacity="0"/>
</linearGradient>
<clipPath id="clip0">
<rect width="40" height="40" fill="white" transform="translate(40 40)"/>
</clipPath>
</defs>
</svg>
